<?xml version="1.0" encoding="UTF-8"?>
<svg width="1505px" height="915px" viewBox="0 0 1505 915" version="1.1" xmlns="http://www.w3.org/2000/svg" xmlns:xlink="http://www.w3.org/1999/xlink">
    <!-- Generator: Sketch 57.1 (83088) - https://sketch.com -->
    <title>womanwithjungle_white</title>
    <desc>Created with Sketch.</desc>
    <g id="Home---Desktop" stroke="none" stroke-width="1" fill="none" fill-rule="evenodd">
        <g id="womanwithjungle_white" transform="translate(-1.000000, 0.000000)">
            <path d="M1389.6,638.9 C1381.4,639 1372.4,639.1 1362.4,639.5 C1356.3,639.7 1349.9,640 1343.2,640.4 C1329.8,641.2 1315.1,642.3 1299.4,643.9 C1293.3,644.5 1287,645.2 1280.6,645.9 C1270.2,647.1 1259.5,648.5 1248.3,650.2 L1250.1,655.9 L1312.7,750.5 L1375.6,698.2 L1391.6,685.2 L1391.6,685.2 L1419,654.3 L1425.6,639.5 C1417.1,639.2 1405,638.8 1389.6,638.9 Z" id="Path"></path>
            <path d="M296,861.1 C289.7,853.8 283.6,846.2 277.8,838.5 L199.8,824.5 C216.7,851.2 222.7,883.4 216.7,914.4 L270.9,914.4 C291.8,911.1 314.1,907.5 337.7,903.4 C322.8,890.3 308.9,876.1 296,861.1 Z" id="Path" fill="#FF8661" fill-rule="nonzero"></path>
            <polygon id="Path" fill="#FF8661" fill-rule="nonzero" points="1.2 337.9 1.2 337.7 1.2 352.8 1.2 352.8"></polygon>
            <path d="M1017.3,436.4 C1016.2,457.7 1009,478.3 996.4,495.5 L1000.8,499.9 C1009.1,508.2 1017,516.8 1024.5,525.8 C1030.2,512.8 1038.7,501.3 1049.4,492 L1027.4,452.2 C1024.4,446.8 1021.3,441.3 1017.3,436.4 Z" id="Path" fill="#FF8661" fill-rule="nonzero"></path>
            <path d="M898.2,507.2 C891.2,501.1 881,497.8 872.4,501.2 C863.4,504.8 858.3,515.1 858.2,524.8 C858.1,537.1 864.6,548.7 870.5,559.1 C884,570.5 897.3,581.8 910,592.5 L926.5,571.3 C927.2,567 928.1,562.5 929.2,557.8 L914.1,529.8 C909.8,521.6 905.2,513.3 898.2,507.2 Z" id="Path" fill="#FF8661" fill-rule="nonzero"></path>
            <path d="M691.4,712.4 C704.9,704.5 719,697.8 733.7,692.4 C734,676.1 736.3,659.9 740.6,644.2 L708,587 C706.2,587.2 704.4,587.3 702.7,587.3 C691,587.2 678.4,582.3 666.8,574.4 C652.4,573.9 640.6,571.5 631.1,567.9 C629.2,568 627.3,567.9 625.5,567.5 C617.6,583 598,614.7 584.3,633.6 C586.7,632.8 589.3,632 591.9,631.2 C597.7,629.4 602.4,628.1 606.2,627.1 C605.8,616.8 613.9,608.1 624.2,607.7 C634.5,607.3 643.2,615.4 643.6,625.7 C643.8,630.6 642,635.4 638.7,639.1 C631.7,646.7 619.8,647.2 612.2,640.2 C610.8,638.9 609.6,637.4 608.7,635.8 C603,637.3 595.9,639.3 588.5,641.7 C598.2,660.7 607,679.5 614.8,697.9 C623.3,717.9 629.4,738.8 632.9,760.2 C635.1,757.7 637.4,755.3 639.7,752.9 C646.1,746.4 656.5,746.3 663,752.7 C663.7,753.4 664.3,754.1 664.8,754.8 C679.7,775.3 692.6,797.3 703.3,820.3 C718.9,815.8 734.6,811.1 750.3,806.3 L687.9,732.6 C683.1,726.9 683.8,718.5 689.5,713.7 C690.1,713.2 690.7,712.8 691.4,712.4 Z" id="Path" fill="#FF8661" fill-rule="nonzero"></path>
            <path d="M276,727.5 L265.2,727.5 L281.5,738 L301.3,741.6 C331.4,747 356.9,766.9 369.4,794.8 L436.9,838.4 L407,731.6 C388.6,734.3 370.1,735.6 351.5,735.4 C324,735.4 298.2,733.2 276,727.5 Z" id="Path" fill="#FF8661" fill-rule="nonzero"></path>
            <path d="M512.8,701 L510.4,619.7 C506.4,612.9 506.1,604.5 509.7,597.5 L507.5,524 C507.4,522.2 508.8,520.8 510.6,520.7 C511.6,520.7 512.6,521.1 513.2,521.9 C533.9,548.5 552.6,576.6 569.2,605.9 C569.4,597.5 569.1,589.3 568.7,582.3 C565.4,581.8 562.2,580.5 559.6,578.4 C551.5,571.9 550.3,560.1 556.7,552.1 C563.1,544.1 575,542.8 583,549.2 C590.3,555.1 592.1,565.4 587.3,573.5 C585.1,577.2 581.6,580.1 577.5,581.5 C578.3,594.5 578.2,607.6 577.2,620.6 L577.5,621.2 C588.3,605.8 606.6,576.5 614.1,561.9 C611.3,559.5 609.2,556.5 607.8,553.1 C583.2,527.8 592.7,489.2 592.7,489.2 L592.7,487.5 C592.8,483.9 592.1,480.4 590.6,477.1 L585,465.7 L584.8,465.2 L583.9,463.3 C583.8,463.2 583.8,463 583.7,462.8 L556.5,459.6 C555.9,459.5 555.4,458.9 555.5,458.3 C555.6,457.8 555.9,457.4 556.4,457.3 L583.1,450.5 C583.2,450 583.3,449.6 583.4,449.1 L583.4,449 C585,443.1 588.5,437.9 593.4,434.2 C591.1,417.8 590,397 591.5,371.3 C591.6,370.4 591.6,369.5 591.7,368.7 C585.1,369 578.7,369.2 572.4,369.2 C547.7,369.2 525,366.6 504.3,361.5 C501.7,361.8 498.9,362 496.1,362.1 C486.9,368.3 476.8,372.3 467.5,372.3 C466.1,372.3 464.7,372.2 463.3,372 L432.4,426.2 C429.1,431.9 421.9,433.9 416.2,430.6 C410.5,427.3 408.5,420.1 411.8,414.4 C412.1,413.8 412.5,413.3 412.9,412.8 L448.6,368.8 L463.6,346.7 C452.1,341 441.3,334.1 431.4,326 C405.9,305.1 369.7,263 344.9,231.7 C304.9,221.6 272.6,195.6 253,156.9 L240.4,132 C229.9,136.5 218.9,139.9 207.6,142 C242.5,161.5 268.2,194.2 278.8,232.7 L309.4,342.7 L319,338 C325,335 332.3,337.5 335.3,343.6 C336.3,345.7 336.7,348 336.5,350.3 L330.3,406.7 C337,412.5 347.2,411.8 353,405 C356.6,400.9 357.8,395.3 356.3,390 L338.2,290 C336.8,281.1 342.8,272.8 351.7,271.3 C359.9,270 367.8,275.1 370,283.1 L397,379 C405.6,410.2 387.3,442.5 356.1,451.2 C355.9,451.3 355.6,451.3 355.4,451.4 C344,454.4 332.1,453.8 321,449.7 C313.2,469.5 300.3,487 283.6,500.2 C284,502.6 284.3,505 284.3,507.4 C284.3,512.4 283.3,517.4 281.4,522 C290,518.2 298.9,515.2 308.1,513 L308.4,512.9 C310.4,512.4 312.4,511.8 314.4,511.4 L314.9,511.3 C316.1,511 317.3,510.8 318.5,510.5 L319.5,510.3 C320.6,510.1 321.7,509.9 322.9,509.7 L323.9,509.5 C325.2,509.3 326.5,509.1 327.8,508.9 L328.2,508.8 C329.7,508.6 331.1,508.4 332.6,508.2 L333.4,508.1 C334.6,508 335.7,507.9 336.9,507.8 L338.3,507.7 L340.2,507.6 L340.1,508.2 L334.4,562.4 L326.9,634.7 L377.1,634.7 L369.2,562.4 L363.2,508 L363.2,507.7 C363.6,507.7 364.1,507.7 364.5,507.8 L366.1,507.9 C367,508 368,508.1 368.9,508.2 L370.4,508.4 L373.8,508.8 L374.6,508.9 C376,509.1 377.4,509.3 378.7,509.5 L379.3,509.6 C393.5,511.7 407.3,515.7 420.3,521.6 C412.4,501.4 422.4,478.6 442.7,470.7 C462.9,462.8 485.7,472.8 493.6,493.1 C501.5,513.3 491.5,536.1 471.2,544 C467.2,545.6 462.9,546.5 458.6,546.6 C462.1,549.8 465.4,553.2 468.4,556.8 L468.4,556.8 L468.4,556.8 C469.8,558.3 471.2,559.8 472.5,561.4 L472.5,561.4 C473.2,562.3 474,563.1 474.7,564 L474.7,564 C475.4,564.9 476.1,565.8 476.8,566.6 L476.8,566.7 C477.5,567.6 478.1,568.5 478.8,569.4 L478.9,569.5 C479.5,570.4 480.2,571.3 480.8,572.2 L480.9,572.3 C481.5,573.2 482.1,574.1 482.7,575 C482.7,575.1 482.8,575.1 482.8,575.2 C483.4,576.1 483.9,577 484.5,577.9 L484.6,578.1 C485.1,579 485.7,579.9 486.2,580.8 L486.4,581.1 C486.9,582 487.4,582.9 487.9,583.7 L488.1,584 C488.6,584.9 489,585.7 489.5,586.6 C489.6,586.7 489.6,586.9 489.7,587 C490.1,587.9 490.6,588.7 491,589.6 L491.2,590.1 C491.6,590.9 492,591.8 492.4,592.6 L492.6,593.1 C493,593.9 493.3,594.8 493.7,595.6 L493.9,596.2 C494.1,596.6 494.2,597 494.4,597.4 L494.4,597.4 L494.9,598.7 C495,598.9 495.1,599.1 495.1,599.4 C495.4,600.2 495.7,601 496,601.8 L496.3,602.5 C496.6,603.3 496.8,604.1 497.1,604.9 C497.2,605.2 497.3,605.4 497.4,605.7 C497.7,606.5 497.9,607.3 498.1,608 C498.2,608.3 498.3,608.6 498.4,608.8 C498.6,609.6 498.8,610.3 499,611.1 C499.1,611.4 499.2,611.7 499.3,612 C499.5,612.7 499.7,613.5 499.9,614.2 C500,614.5 500.1,614.9 500.1,615.2 C500.3,615.9 500.4,616.7 500.6,617.4 L500.8,618.5 C500.9,619.2 501.1,620 501.2,620.7 L501.4,621.8 C501.5,622.5 501.6,623.2 501.7,623.9 C501.8,624.3 501.8,624.7 501.9,625.1 C502,625.8 502.1,626.5 502.2,627.2 C502.3,627.6 502.3,628 502.4,628.5 C502.5,629.2 502.5,629.9 502.6,630.6 C502.6,631 502.7,631.4 502.7,631.9 C502.8,632.6 502.8,633.3 502.9,634 C502.9,634.4 503,634.9 503,635.3 C503,636 503.1,636.8 503.1,637.5 C503.1,637.9 503.1,638.3 503.1,638.7 C503.1,639.7 503.1,640.7 503.1,641.8 L503.1,642.2 L503.1,642.2 C503.1,643.4 503.1,644.6 503,645.8 C503,646.2 503,646.6 503,647.1 C503,647.9 502.9,648.6 502.9,649.4 C502.9,650.2 502.8,651.1 502.7,652 L502.6,653.1 C502.6,653.2 502.6,653.3 502.6,653.4 C502.5,654.2 502.4,655 502.3,655.8 L502.2,656.8 C502.1,657.6 502,658.4 501.8,659.1 C501.8,659.3 501.7,659.6 501.7,659.8 C500.9,664.1 499.9,668.3 498.4,672.5 C497.9,673.8 497.5,675.1 496.9,676.3 C496.6,677 496.3,677.7 496,678.4 C495.8,678.9 495.5,679.4 495.3,679.9 C494.9,680.8 494.4,681.6 494,682.4 C493.8,682.7 493.7,683 493.5,683.3 C493,684.2 492.5,685 492,685.8 C491.9,686 491.7,686.3 491.6,686.5 L491.5,686.6 C490.9,687.6 490.2,688.6 489.5,689.6 L489.1,690.1 C488.4,691.1 487.7,692 487,692.9 L486.6,693.4 C485.9,694.3 485.1,695.2 484.4,696 C484.2,696.2 484.1,696.4 483.9,696.6 C483,697.6 482,698.6 481,699.6 C480.4,700.2 479.7,700.9 479.1,701.5 C472.2,707.8 464.4,713.1 456,717.1 C455.1,717.5 454.2,717.9 453.3,718.4 C452.4,718.9 451.5,719.2 450.6,719.6 L478,748.6 L472.1,742.4 C472.3,742.4 493.2,722.1 512.8,701 Z M347.2,507.3 L345.8,507.3 L347.2,507.3 Z M342.8,507.5 C342.3,507.5 341.8,507.5 341.3,507.6 C341.8,507.6 342.3,507.5 342.8,507.5 Z" id="Shape" fill="#FF8661" fill-rule="nonzero"></path>
            <path d="M763,522.1 L762.8,522.5 C753.6,542.3 731.1,552 710.4,545.3 C706,543.9 701.8,542.4 697.7,540.9 L726.4,583 L726.4,583 L751.5,613.9 C765.1,582.8 782.7,553.4 803,525.9 L765.6,516.6 C764.8,518.4 763.9,520.3 763,522.1 Z" id="Path" fill="#FF8661" fill-rule="nonzero"></path>
            <path d="M891.7,605.3 C878,603.6 864.4,601.1 851,598.1 L856.5,661.7 L901.8,603.2 C900.8,602.3 899.8,601.4 898.9,600.5 C898.1,603.7 895,605.7 891.7,605.3 Z" id="Path" fill="#FF8661" fill-rule="nonzero"></path>
            <path d="M184.5,528.9 L189.7,469.9 C193.7,424.2 218.9,387.4 259.8,367.3 L270.6,362 L237.5,243 C228.5,210.5 204.4,184.3 172.8,172.5 C178.9,197.9 180.5,210.4 180.5,210.4 C182.7,225.8 181.5,241.5 177,256.3 L177,267.2 C178.8,267 180.6,267.1 182.4,267.5 C191.5,269.5 197.3,278.4 195.3,287.5 C193.5,295.9 185.6,301.6 177,300.7 L177,323.5 C178.6,324.4 180,325.1 181.4,325.8 C189.9,316.8 204,316.4 213,324.9 C222,333.4 222.4,347.5 213.9,356.5 C205.4,365.5 191.3,365.9 182.3,357.4 C180,355.3 178.2,352.7 177,349.8 L177,498.7 C177,509.3 179.6,519.6 184.5,528.9 Z" id="Path" fill="#FF8661" fill-rule="nonzero"></path>
            <path d="M1.3,689.4 L1.3,691.8 L1.5,691.8 C1.4,690.8 1.3,690 1.3,689.4 Z" id="Path" fill="#FF8661" fill-rule="nonzero"></path>
            <path d="M1282.6,399.2 C1292.5,410.7 1298.7,424.9 1300.5,440 C1300.5,440.1 1300.6,440.3 1300.5,440.1 L1300.6,440.7 L1300.8,443.5 C1301.7,451.6 1300.2,510.8 1300.2,510.8 L1306.1,517.8 C1307.6,520.9 1306.3,524.8 1303.2,526.3 C1302.4,526.7 1301.6,526.9 1300.7,526.9 C1299.3,527 1298.1,527 1298.1,527 C1298.1,527 1294,570.1 1249.7,574.1 L1239.3,608.3 C1238.4,614.2 1238.9,620.2 1240.7,625.9 L1248.3,650.2 C1259.5,648.6 1270.2,647.2 1280.6,645.9 C1283.2,622.6 1293.5,600.8 1310,584 C1311.9,575.8 1319.1,569.9 1327.5,569.6 C1335,564.7 1343,560.8 1351.5,557.9 C1340,551.5 1335.8,537 1342.2,525.5 C1348.6,514 1363.1,509.8 1374.6,516.2 C1386.1,522.6 1390.3,537.1 1383.9,548.6 C1383.2,549.9 1382.3,551.2 1381.3,552.4 C1396.5,551.8 1411.7,554.6 1425.8,560.4 C1427.8,547.2 1432.3,534.5 1439.1,523 C1406.9,484 1384.8,442.6 1367.9,398.5 C1351.7,389 1335.1,380.5 1317.9,372.9 C1308,384 1296,392.9 1282.6,399.2 Z" id="Path" fill="#FF8661" fill-rule="nonzero"></path>
            <path d="M1300.5,440.2 C1300.5,440.2 1300.5,440.1 1300.5,440.2 C1300.5,440.1 1300.5,440 1300.5,440.2 Z" id="Path" fill="#FF8661" fill-rule="nonzero"></path>
            <path d="M482.9,753.7 L515.3,788.1 L513.3,722.4 C509.5,724.4 507.3,725.6 507.3,725.6 C500,733.6 483,753.6 482.9,753.7 Z" id="Path" fill="#FF8661" fill-rule="nonzero"></path>
            <polygon id="Path" fill="#FF8661" fill-rule="nonzero" points="1.2 138.9 1.2 1.8 1 1.8 1.1 189.1 1.2 189"></polygon>
            <path d="M1218.5,340.3 L1217.9,340.2 C1217.9,341.2 1217.8,342.2 1217.7,343.2 C1217.9,342.2 1218.2,341.3 1218.5,340.3 Z" id="Path" fill="#FF8661" fill-rule="nonzero"></path>
            <path d="M1.2,202.1 L1.1,202 L1.1,211.2 C1.1,211.1 1.2,211 1.2,211 L1.2,202.1 Z" id="Path" fill="#FF8661" fill-rule="nonzero"></path>
            <path d="M197.9,546 C207,554.3 218.4,559.7 230.6,561.6 L230.6,561.6 C232.3,559.6 234.1,557.6 235.9,555.7 L235.9,555.7 C238.3,552.4 241,549.4 244,546.6 C234.3,546.4 225.1,542.6 218.1,536 L197.9,546 Z" id="Path" fill="#FF8661" fill-rule="nonzero"></path>
            <path d="M423.6,155.3 L459,221.6 C462.6,228.4 460.1,236.8 453.3,240.4 C450.9,241.7 448.3,242.2 445.6,242 L370.7,236.3 C368.1,236.1 365.6,235.8 363.1,235.5 C387.4,265.4 418,299.9 439.1,317.2 C448.7,325 459.2,331.7 470.4,337 L504.5,287.1 L511.2,273.5 L511.2,273.5 L517.9,260.1 C521.6,250.7 531.1,244.8 541.2,245.7 C550.7,246.5 559.2,252.9 562.1,261.3 C562.3,261.8 562.4,262.2 562.5,262.7 L562.5,262.8 C562.6,263.2 562.7,263.5 562.7,263.9 L583.9,269.3 C584.4,269.4 584.7,269.9 584.6,270.5 C584.5,270.9 584.2,271.1 583.8,271.2 L562.1,273.8 C562.1,273.9 562,274 561.9,274.2 L561.2,275.7 L561,276.1 L556.5,285.1 C555.3,287.7 554.7,290.5 554.8,293.4 L554.8,294.8 C554.8,294.8 565.1,337 530.1,354.9 C550,357.8 571.6,358.5 594.9,357 C601.4,342.6 615.3,333 631,331.9 L631.4,331.9 C642.6,331.1 654.2,329.9 663.4,322.6 C665.7,320.8 667.6,318.6 669.1,316.1 C677.8,301.4 667,288.5 654.7,283.6 C645.7,280 635.9,279.7 626.3,278.4 L626,278 C603.6,274.8 587.9,254.4 590.5,231.9 C591.4,224.8 592.4,217.6 593.6,210.5 C641,237 596.8,195 609.8,195 C622.8,195 623,203.9 628.9,210.4 C638.1,220.8 648,236 662.8,241.5 C671.7,244.8 682.8,243.9 689.4,237.1 C676,229.1 662.7,220.3 649.4,210.5 C585.1,163.2 515.7,123.1 442.6,91.1 C426.9,102.1 409,109.5 390.1,112.8 C403.8,124.8 415.2,139.2 423.6,155.3 Z" id="Path" fill="#FF8661" fill-rule="nonzero"></path>
            <path d="M1094.1,360.6 C1092.4,359.1 1090.7,357.7 1088.8,356.4 C1088.1,358.1 1087.4,359.8 1086.8,361.4 C1089.6,363.2 1091.9,365.7 1093.5,368.7 C1098.2,377.9 1094.6,389.2 1085.4,393.9 C1076.2,398.6 1064.9,395 1060.2,385.8 C1055.9,377.5 1058.5,367.2 1066.2,361.9 C1069.7,359.4 1074,358.3 1078.4,358.6 C1079.1,356.6 1080,354.6 1080.8,352.5 C1072.6,349.9 1063.7,350.7 1056.2,358 C1051.8,362.3 1048.9,368 1048,374.1 C1045.8,389.3 1054,403.3 1064.7,413.5 C1073.9,422.2 1084.9,428.6 1095.3,435.8 C1100.5,439.4 1106.6,445 1112.8,451.5 C1114.2,441.5 1117.2,431.8 1121.6,422.7 C1123.5,418.9 1125.6,415.3 1128,411.8 C1122.2,402.8 1116.5,393.7 1111.2,384.4 C1106.1,376.1 1101.3,367.3 1094.1,360.6 Z" id="Path" fill="#FF8661" fill-rule="nonzero"></path>
            <path d="M863.7,450.2 C862.8,452.9 860,454.4 857.2,453.6 C856.3,453.3 855.5,452.8 854.9,452.1 C814.2,405.6 787.9,359.6 770.8,312.8 C709.4,343.4 661.6,361.2 628.3,365.6 C615.6,367.3 603.4,368.4 591.6,369 C591.5,369.9 591.4,370.7 591.4,371.6 C589.9,397.3 591,418.1 593.3,434.5 C598.1,430.7 604,428.4 610.1,427.8 C622.8,426.7 634.7,434.1 639.4,445.9 L647.7,462.9 L647.8,462.8 L656.2,479.9 L697.9,540.9 C702,542.4 706.2,543.9 710.6,545.3 C731.3,552.1 753.8,542.3 763,522.5 L763.2,522.1 C764,520.3 764.9,518.4 765.8,516.6 L765,516.4 C727.3,508.1 699.3,483.1 686.9,446.7 L669.1,394.2 C667.3,388.8 670.1,383 675.5,381.2 C677.4,380.6 679.4,380.5 681.3,380.9 L735.1,394 C772.4,403.1 799.9,428.8 811.5,465.6 L822.7,501 C827.4,495.3 832.3,489.6 837.2,484 C838,483 839.5,482.8 840.6,483.7 C841.2,484.2 841.5,485 841.5,485.8 L846.1,538 C854.4,545 862.7,552.1 870.9,559.1 C865,548.8 858.5,537.1 858.6,524.8 C858.6,515.1 863.7,504.8 872.8,501.2 C881.4,497.8 891.6,501.1 898.6,507.2 C905.6,513.3 910.2,521.6 914.6,529.8 L929.7,557.8 C929.7,557.6 929.8,557.5 929.8,557.3 L929.5,557.3 L911.8,491.7 C900.7,451.3 910.6,411.7 939.3,381.5 L980.7,337.9 C984.9,333.4 992,333.3 996.4,337.5 C997.9,339 999,340.8 999.5,342.9 L1001.8,352.1 C1010,346.3 1020.9,346.3 1029.2,352.1 C1038.7,344.4 1056.9,331.7 1073.9,320.8 C1026.9,317.3 979.9,315.3 933.2,310.4 C934.5,319.2 935.7,328.6 936.9,338.7 C937.3,341.7 934.4,342.4 931.6,341.4 C913.7,334.9 894.8,332.2 872.3,302.1 C867.7,301.3 863,300.4 858.4,299.5 C874.1,404.2 866.5,441 863.7,450.2 Z" id="Path" fill="#EF6949" fill-rule="nonzero"></path>
            <path d="M662.8,241.6 C648,236.1 638.1,220.9 628.9,210.5 C623,203.9 622.8,195.1 609.8,195.1 C596.8,195.1 593.6,210.5 593.6,210.5 C592.4,217.6 591.3,224.8 590.5,231.9 C587.9,254.4 603.6,274.8 626,278 L626.4,278.1 C635.9,279.4 645.8,279.7 654.8,283.3 C667.1,288.2 677.9,301.1 669.2,315.8 C667.7,318.3 665.8,320.5 663.5,322.3 C654.3,329.6 642.7,330.8 631.5,331.6 L631.1,331.6 C615.4,332.7 601.5,342.4 595,356.7 C605.2,356.1 615.8,355 626.7,353.6 C662.6,348.8 713.2,328.1 766.8,301.2 C763.5,291.1 760.5,281 757.9,270.9 C734.2,261.5 711.3,250.2 689.4,237.1 C682.8,243.9 671.7,244.9 662.8,241.6 Z" id="Path" fill="#EF6949" fill-rule="nonzero"></path>
            <path d="M1094.1,360.6 C1101.3,367.3 1106.1,376 1111.1,384.5 C1116.5,393.8 1122.1,402.9 1127.9,411.9 C1133.6,403.7 1140.6,396.4 1148.6,390.4 L1152.2,387.7 C1169.6,374.5 1190.9,367.6 1212.7,368.3 L1215.3,353.7 C1215.9,350.1 1216.7,346.6 1217.7,343.1 C1217.8,342.1 1217.8,341.1 1217.9,340.1 C1193.4,334.6 1168.9,330.5 1144.5,327.5 C1143.7,329.5 1143.1,331.5 1142.4,333.3 C1153.8,338.7 1158.6,352.4 1153.1,363.8 C1147.7,375.2 1134,380 1122.6,374.5 C1111.2,369.1 1106.4,355.4 1111.9,344 C1115.9,335.7 1124.4,330.6 1133.6,331 C1134.1,329.5 1134.6,327.9 1135.2,326.3 C1125,325.1 1114.9,324.1 1104.7,323.2 C1098.6,333.3 1093,345.8 1088.7,356.4 C1090.6,357.7 1092.4,359.1 1094.1,360.6 Z" id="Path" fill="#EF6949" fill-rule="nonzero"></path>
            <path d="M1026.7,392.5 C1022.3,394.9 1017.3,395.9 1012.3,395.3 L1013.8,401.2 C1016.7,412.7 1017.9,424.6 1017.3,436.4 C1021.3,441.3 1024.3,446.8 1027.4,452.3 L1049.4,492.1 C1066.7,477.1 1088.8,468.9 1111.7,469 C1111.5,464.1 1111.7,459.3 1112.2,454.5 C1112.3,453.5 1112.4,452.6 1112.6,451.7 C1106.4,445.2 1100.4,439.6 1095.1,436 C1084.7,428.8 1073.6,422.4 1064.5,413.7 C1053.7,403.5 1045.5,389.5 1047.8,374.3 C1048.7,368.2 1051.6,362.5 1056,358.2 C1063.5,351 1072.5,350.1 1080.6,352.7 C1084.7,342.4 1089.4,332.3 1094.8,322.6 L1094.5,322.6 C1078.3,332.2 1049.6,351.6 1036.8,361.9 C1042,373 1037.5,386.4 1026.7,392.5 Z" id="Path" fill="#EF6949" fill-rule="nonzero"></path>
            <path d="M996.5,495.6 C993.3,500 989.9,504.2 986.1,508.2 L966.5,567.3 C976.4,562.1 987.1,558.3 998,556.1 C1004.3,554.8 1010.7,554.1 1017.1,553.8 C1018.1,544.2 1020.6,534.8 1024.5,525.9 C1017,516.9 1009.1,508.2 1000.8,500 L996.5,495.6 Z" id="Path" fill="#EF6949" fill-rule="nonzero"></path>
            <path d="M891.7,605.3 C895,605.8 898.1,603.7 899,600.5 C882.2,585.2 864.6,568.8 847.1,552.5 L851.1,598.1 C864.4,601.1 878,603.5 891.7,605.3 Z" id="Path" fill="#EF6949" fill-rule="nonzero"></path>
            <path d="M572.3,369.5 C578.6,369.5 585,369.3 591.6,369 C603.4,368.4 615.7,367.3 628.3,365.6 C661.6,361.2 709.4,343.5 770.8,312.8 C769.4,309 768.1,305.1 766.8,301.3 C713.2,328.2 662.6,348.9 626.7,353.7 C615.8,355.1 605.2,356.2 595,356.8 C571.7,358.2 550.1,357.5 530.2,354.7 C523.4,358.2 514.9,360.7 504.2,361.9 C524.9,366.9 547.6,369.4 572.3,369.5 Z" id="Path" fill="#04216E" fill-rule="nonzero"></path>
            <path d="M431.4,326.3 C441.3,334.4 452.1,341.3 463.6,347 L470.5,337 C459.3,331.6 448.9,325 439.3,317.1 C418.2,299.8 387.5,265.3 363.3,235.4 C357.1,234.6 351,233.5 344.9,231.9 C369.6,263.4 405.9,305.5 431.4,326.3 Z" id="Path" fill="#04216E" fill-rule="nonzero"></path>
            <path d="M931.2,341.4 C934,342.4 936.9,341.6 936.5,338.7 C935.3,328.6 934,319.2 932.8,310.4 C912.5,308.3 892.1,305.7 871.9,302.2 C894.3,332.3 913.3,334.9 931.2,341.4 Z" id="Path" fill="#5683E0" fill-rule="nonzero"></path>
            <path d="M770.8,312.7 C787.9,359.5 814.3,405.5 854.9,452 C856.8,454.1 860,454.4 862.2,452.5 C862.9,451.9 863.4,451.1 863.7,450.2 C866.5,441.1 874.1,404.2 857.9,299.7 C845.7,297.3 833.4,294.6 821.2,291.5 L824.9,361.4 C825,362.9 823.8,364.3 822.3,364.4 C821.2,364.5 820.2,363.9 819.7,362.9 C810.2,345.2 800.5,318.9 794.3,300.8 C792.8,296.3 791.5,292.4 790.4,289.2 C789.3,286 788.6,283.4 788.1,282 C778,278.7 767.9,275.1 757.9,271.1 C760.5,281.2 763.4,291.3 766.8,301.4 C768.1,305.1 769.4,308.9 770.8,312.7 Z" id="Path" fill="#5683E0" fill-rule="nonzero"></path>
            <path d="M284.2,102.8 C275.5,111.5 265.6,119 254.9,125.1 C250.7,127.5 246.4,129.7 242.1,131.5 C241.5,131.8 240.9,132.1 240.2,132.3 L252.8,157.2 C272.4,195.8 304.7,221.9 344.7,232 C350.7,233.5 356.8,234.7 363,235.4 C365.5,235.7 368,236 370.6,236.2 L445.5,242 C453.2,242.6 459.9,236.9 460.5,229.2 C460.7,226.5 460.2,223.9 458.9,221.5 L423.5,155.2 C415,139.1 403.7,124.7 389.9,112.8 C408.8,109.5 426.7,102.1 442.4,91.1 C402.5,73.7 361.6,58.6 319.9,46.1 C315.5,57.7 309.9,68.7 303.2,79.1 C297.8,87.7 291.4,95.6 284.2,102.8 Z" id="Path" fill="#2C52CF" fill-rule="nonzero"></path>
            <path d="M639.6,752.9 C637.3,755.3 635,757.7 632.8,760.2 C637.2,786.2 638.1,812.7 635.5,838.9 C657.9,833 680.5,826.8 703.3,820.3 C692.6,797.3 679.7,775.4 664.8,754.8 C659.5,747.4 649.2,745.7 641.8,751.1 C641,751.6 640.3,752.2 639.6,752.9 Z" id="Path" fill="#EF6949" fill-rule="nonzero"></path>
            <path d="M915.2,725.8 C914.9,725.2 914.6,724.7 914.4,724.1 L913.5,726.8 L915.2,725.8 Z" id="Path" fill="#EF6949" fill-rule="nonzero"></path>
            <path d="M733.7,692.4 C719.1,697.8 704.9,704.5 691.4,712.4 C685,716.1 682.8,724.3 686.6,730.7 C687,731.4 687.4,732 687.9,732.6 L750.3,806.3 C755.2,804.8 760.1,803.3 764.9,801.8 C744,769.2 733.1,731.2 733.7,692.4 Z" id="Path" fill="#EF6949" fill-rule="nonzero"></path>
            <path d="M172.5,268.4 C173.9,267.8 175.4,267.5 177,267.3 L177,256.4 C175.7,260.5 174.2,264.5 172.5,268.4 Z" id="Path" fill="#E75534" fill-rule="nonzero"></path>
            <path d="M148.9,758.4 L98,750.2 C101.4,755.6 104.3,761.3 106.8,767.2 C145,770.9 179.3,792.1 199.8,824.5 L277.8,838.5 C256.2,809.9 237.4,779.2 221.6,747 C200,758.6 175.1,762.7 148.9,758.4 Z" id="Path" fill="#E75534" fill-rule="nonzero"></path>
            <path d="M184.5,528.9 C179.5,519.7 177,509.4 177,498.9 L177,349.9 C175.3,345.8 174.8,341.2 175.7,336.8 C166.4,332 150.6,322.5 135.5,312.7 C131.7,315.3 127.8,317.6 123.7,319.7 C124.7,320.1 125.6,320.6 126.5,321.2 C131.9,324.8 134.8,331.1 134,337.5 C132.9,346.7 124.6,353.4 115.3,352.3 C106.1,351.2 99.4,342.9 100.5,333.6 C100.5,333.4 100.6,333.1 100.6,332.9 C100.9,331.1 101.4,329.3 102.2,327.7 C82.2,332.8 61.2,331.9 41.7,325.1 L51.2,359.4 L71.1,362 C95.7,365.2 114.1,386.2 114.2,411 L23.8,422.9 L40.5,434.2 C44.9,437.2 49.2,440.5 53.2,444 L71.2,446.4 C95.8,449.6 114.3,470.6 114.3,495.5 L87.5,499 C90.7,511 91.9,523.5 91.3,535.9 L91.2,537.9 C105.6,547 114.3,562.8 114.3,579.7 L89,583 L88,602.7 L88,602.7 C95.4,617.7 100.7,633.7 103.9,650.1 C127.2,619.7 155.6,582.4 183.3,545.6 L183.2,545.6 L184.5,528.9 Z" id="Path" fill="#E75534" fill-rule="nonzero"></path>
            <path d="M85.7,733.6 L122.4,688.6 C142.8,663.6 169.9,649 200.1,646.2 C200,644.8 200,643.4 200,642 C200,640.9 200,639.7 200.1,638.6 C200.1,638.3 200.1,637.9 200.1,637.6 C200.1,636.8 200.2,636 200.2,635.2 L200.3,634 C200.4,633.3 200.4,632.5 200.5,631.8 L200.6,630.6 C200.7,629.9 200.7,629.2 200.8,628.5 C200.8,628.1 200.9,627.7 200.9,627.3 C201,626.6 201.1,625.9 201.2,625.1 C201.2,624.7 201.3,624.3 201.4,623.9 C201.5,623.2 201.6,622.4 201.8,621.7 C201.9,621.3 201.9,621 202,620.6 C202.1,619.9 202.3,619.1 202.4,618.4 C202.5,618.1 202.5,617.7 202.6,617.4 C202.8,616.6 202.9,615.9 203.1,615.2 L203.3,614.2 C203.5,613.4 203.7,612.7 203.9,611.9 C204,611.6 204.1,611.3 204.1,611 C204.3,610.2 204.5,609.5 204.7,608.7 C204.8,608.4 204.9,608.1 205,607.9 C205.2,607.1 205.5,606.3 205.7,605.5 C205.8,605.2 205.9,605 206,604.7 C206.3,603.9 206.5,603.1 206.8,602.3 C206.9,602.1 207,601.8 207,601.6 C207.3,600.8 207.6,600 207.9,599.1 L208.1,598.5 L208.5,597.4 L208.5,597.4 C208.7,596.9 208.9,596.5 209.1,596 L209.3,595.4 C209.7,594.6 210,593.7 210.4,592.9 C210.5,592.7 210.5,592.6 210.6,592.4 C211,591.5 211.4,590.7 211.8,589.8 L212,589.4 C212.4,588.5 212.9,587.7 213.3,586.8 C213.4,586.7 213.4,586.6 213.5,586.4 C214,585.5 214.4,584.6 214.9,583.8 L215.1,583.5 C215.6,582.6 216.1,581.7 216.6,580.8 L216.7,580.6 C217.2,579.7 217.8,578.8 218.3,577.9 L218.4,577.7 C219,576.8 219.5,575.9 220.1,575 L220.2,574.8 C220.8,573.9 221.4,573 222,572.1 L222.1,572 C222.7,571.1 223.3,570.2 224,569.3 C224,569.3 224,569.2 224.1,569.2 C224.8,568.3 225.4,567.4 226.1,566.5 L226.1,566.5 C226.8,565.6 227.5,564.7 228.2,563.8 L228.2,563.8 C228.9,563 229.6,562.1 230.2,561.3 L230.2,561.3 C218.1,559.3 206.8,553.8 197.7,545.5 L191.5,548.6 C147.3,613.7 99.4,682 70.5,719 C73.9,721.7 77.2,724.7 80.3,727.8 C82.1,729.7 84,731.6 85.7,733.6 Z" id="Path" fill="#E75534" fill-rule="nonzero"></path>
            <path d="M177,300.8 C170.5,300.1 165,295.7 162.9,289.6 L159.9,289.7 C157.1,293.3 154,296.8 150.7,300 C149.1,301.6 147.4,303.1 145.7,304.6 C156.8,311.7 168.5,318.9 176.9,323.5 L177,300.8 L177,300.8 Z" id="Path" fill="#E75534" fill-rule="nonzero"></path>
            <path d="M57,709.5 C69.5,693.7 86.1,672.3 86.1,672.3 C99.8,658.7 86.1,621.8 78.7,604.6 L52.4,587.6 L1.3,594.3 L1.2,594.3 L1.2,609.2 L1.3,609.2 L31.5,613.2 C56.1,616.4 74.5,637.4 74.5,662.3 L74.5,662.3 L1.3,672 L1.2,672 L1.2,687.7 C1.2,687.7 1.2,688.3 1.3,689.4 C1.3,690 1.4,690.8 1.5,691.8 C21.1,693.2 40.2,699.2 57,709.5 Z" id="Path" fill="#E75534" fill-rule="nonzero"></path>
            <path d="M254.5,720.6 L254.5,720.6 L265.2,727.5 L276,727.5 C268.7,725.7 261.5,723.4 254.5,720.6 Z" id="Path" fill="#E75534" fill-rule="nonzero"></path>
            <path d="M301.3,741.6 L281.5,738 L369.4,794.7 C356.9,766.9 331.4,747 301.3,741.6 Z" id="Path" fill="#E75534" fill-rule="nonzero"></path>
            <path d="M237.6,243 L270.7,362 L309.4,343 L278.8,233 C268.1,194.5 242.5,161.8 207.6,142.3 C183.6,146.9 165.9,145 165.9,145 C168.8,155.4 171.1,164.6 173,172.5 C204.5,184.3 228.5,210.5 237.6,243 Z" id="Path" fill="#EF6949" fill-rule="nonzero"></path>
            <path d="M321,449.7 C332,453.7 344,454.3 355.4,451.3 C386.7,443.1 405.4,411 397.2,379.6 C397.1,379.4 397.1,379.1 397,378.9 L369.9,283.4 C367.6,274.7 358.6,269.6 349.9,271.9 C341.9,274.1 336.8,282 338.1,290.2 L356.2,390.2 C358.7,398.7 353.7,407.7 345.2,410.1 C340,411.6 334.3,410.4 330.2,406.8 L329.2,415.8 C328,427.5 325.2,438.9 321,449.7 Z" id="Path" fill="#EF6949" fill-rule="nonzero"></path>
            <path d="M1.2,210.9 C1.2,211 1.1,211.1 1.1,211.1 L1,211.4 L1,337.2 L1.2,337.7 L1.2,337.9 L1.2,210.9 Z" id="Path" fill="#EF6949" fill-rule="nonzero"></path>
            <path d="M35.7,322.8 C33.9,334.4 30.2,345.5 24.8,355.9 L51.2,359.4 L41.7,325.1 C39.6,324.4 37.7,323.6 35.7,322.8 Z" id="Path" fill="#EF6949" fill-rule="nonzero"></path>
            <path d="M456.2,717.2 C464.6,713.2 472.4,707.9 479.3,701.6 C480,701 480.6,700.4 481.2,699.7 C482.2,698.7 483.1,697.7 484.1,696.7 C484.3,696.5 484.4,696.3 484.6,696.1 C485.4,695.2 486.1,694.4 486.8,693.5 L487.2,693 C487.9,692.1 488.6,691.1 489.3,690.2 L489.7,689.7 C490.4,688.7 491,687.7 491.7,686.7 L491.8,686.6 L461.3,672.3 C459.4,671.4 458.6,669.2 459.5,667.3 C460.1,666 461.4,665.1 462.9,665.1 L500.7,665.1 C500.1,667.6 499.4,670.1 498.6,672.4 C500,668.3 501.1,664 501.9,659.7 C501.9,659.5 502,659.2 502,659 C502.1,658.2 502.2,657.4 502.4,656.7 L502.5,655.7 C502.6,654.9 502.7,654.1 502.8,653.3 C502.8,653.2 502.8,653.1 502.8,653 L444,653 C441.9,653 440.2,651.3 440.3,649.2 C440.3,648.2 440.7,647.2 441.5,646.5 L494.6,597.4 C494.5,597 494.3,596.6 494.1,596.2 L493.9,595.6 C493.5,594.8 493.2,593.9 492.8,593.1 L492.6,592.6 C492.2,591.8 491.8,590.9 491.4,590.1 L491.2,589.6 C490.8,588.7 490.4,587.9 489.9,587 C489.8,586.9 489.8,586.8 489.7,586.6 C489.2,585.7 488.8,584.9 488.3,584 L488.1,583.7 C487.6,582.8 487.1,581.9 486.6,581.1 L486.4,580.8 C485.9,579.9 485.4,579 484.8,578.1 L484.7,577.9 C484.2,577 483.6,576.1 483,575.2 C483,575.1 482.9,575.1 482.9,575 C482.3,574.1 481.7,573.2 481.1,572.3 L481,572.2 C480.4,571.3 479.8,570.4 479.1,569.5 L479,569.4 C478.4,568.5 477.7,567.6 477,566.7 L477,566.6 C476.3,565.7 475.6,564.8 474.9,564 L474.9,564 C474.2,563.1 473.5,562.2 472.7,561.4 L472.7,561.4 C471.4,559.8 470,558.3 468.6,556.8 C468.7,557.6 472.6,592.7 417.9,611.7 C411.5,613.9 405,615.7 398.4,617.2 L397.3,617.5 C413.5,623.4 423.5,639.6 421.7,656.7 C421.2,661.2 420,665.6 417.9,669.6 C416.3,672.7 414.3,675.5 412,678.1 L417.9,684.3 L451.1,719.6 L451.1,719.6 C452,719.2 452.9,718.8 453.8,718.4 C454.4,718.1 455.3,717.7 456.2,717.2 Z" id="Path" fill="#EF6949" fill-rule="nonzero"></path>
            <path d="M493.6,683.3 C493.1,684.2 492.6,685 492.1,685.8 C492.6,685 493.1,684.1 493.6,683.3 Z" id="Path" fill="#EF6949" fill-rule="nonzero"></path>
            <path d="M495.4,679.8 C495,680.7 494.5,681.5 494.1,682.3 C494.5,681.5 494.9,680.7 495.4,679.8 Z" id="Path" fill="#EF6949" fill-rule="nonzero"></path>
            <path d="M497,676.2 C496.7,676.9 496.4,677.6 496.1,678.3 C496.4,677.6 496.7,676.9 497,676.2 Z" id="Path" fill="#EF6949" fill-rule="nonzero"></path>
            <path d="M503.1,645.6 C503.1,646 503.1,646.4 503.1,646.9 C503.1,646.5 503.1,646 503.1,645.6 Z" id="Path" fill="#EF6949" fill-rule="nonzero"></path>
            <path d="M503,649.2 C502.9,650.1 502.9,650.9 502.8,651.8 C502.8,650.9 502.9,650 503,649.2 Z" id="Path" fill="#EF6949" fill-rule="nonzero"></path>
            <path d="M496.2,507.4 C496.2,485.7 478.6,468.1 456.9,468.1 C435.2,468.1 417.6,485.7 417.6,507.4 C417.6,512.3 418.5,517.1 420.3,521.6 C434.3,527.9 447.2,536.3 458.5,546.6 C479.6,545.7 496.2,528.4 496.2,507.4 Z" id="Path" fill="#EF6949" fill-rule="nonzero"></path>
            <path d="M370.4,508.3 L368.9,508.1" id="Path"></path>
            <path d="M374.6,508.9 L373.8,508.8" id="Path"></path>
            <path d="M366.1,507.9 L364.5,507.8" id="Path"></path>
            <path d="M480.8,572.4 L480.7,572.3" id="Path"></path>
            <path d="M340.2,507.7 L338.3,507.8 L336.9,507.9 C335.7,508 334.6,508.1 333.4,508.2 L332.6,508.3 C331.1,508.5 329.7,508.6 328.2,508.9 L327.8,509 C326.5,509.2 325.2,509.4 323.9,509.6 L322.9,509.8 C321.8,510 320.7,510.2 319.5,510.4 L318.5,510.6 C317.3,510.8 316.1,511.1 314.9,511.4 L314.4,511.5 C312.4,512 310.4,512.5 308.4,513 C318.8,510.5 329.4,508.9 340.1,508.2 L340.2,507.7 Z" id="Path" fill="#EF6949" fill-rule="nonzero"></path>
            <path d="M379.3,509.6 L378.7,509.5 C377.3,509.3 375.9,509.1 374.6,508.9 L373.8,508.8 L370.4,508.4 L368.9,508.2 C368,508.1 367,508 366.1,507.9 L364.5,507.8 C364.1,507.8 363.6,507.7 363.2,507.7 L363.2,508 C368.7,508.3 374.1,508.8 379.2,509.6 L379.3,509.6 Z" id="Path" fill="#EF6949" fill-rule="nonzero"></path>
            <path d="M332.6,508.4 L333.4,508.3" id="Path"></path>
            <path d="M218.1,536 C225.1,542.6 234.4,546.4 244,546.6 C254.9,536.2 267.6,527.9 281.4,522 C283.3,517.3 284.3,512.4 284.3,507.3 C284.3,504.9 284.1,502.5 283.6,500.1 C275.3,506.7 266.2,512.3 256.6,516.7 L218.1,536 Z" id="Path" fill="#EF6949" fill-rule="nonzero"></path>
            <path d="M493.8,596.1 L493.6,595.5" id="Path"></path>
            <path d="M492.5,593 L492.3,592.5" id="Path"></path>
            <path d="M489.5,586.9 C489.4,586.8 489.4,586.7 489.3,586.5" id="Path"></path>
            <path d="M491,590 L490.8,589.5" id="Path"></path>
            <path d="M456.2,717.2 C464.6,713.2 472.4,707.9 479.3,701.6" id="Path"></path>
            <path d="M228.6,564.1 L228.6,564.1 C227.9,565 227.2,565.9 226.5,566.8 L226.5,566.8 C225.8,567.7 225.2,568.6 224.5,569.5 C224.5,569.5 224.5,569.6 224.4,569.6 C223.8,570.5 223.1,571.4 222.5,572.3 L222.4,572.4 C221.8,573.3 221.2,574.2 220.6,575.1 L220.5,575.3 C219.9,576.2 219.4,577.1 218.8,578 L218.7,578.2 C218.2,579.1 217.6,580 217.1,580.9 L217,581.1 C216.5,582 216,582.9 215.5,583.8 L215.3,584.1 C214.8,585 214.4,585.8 213.9,586.7 C213.8,586.8 213.8,586.9 213.7,587.1 C213.3,588 212.8,588.8 212.4,589.7 L212.2,590.1 C211.8,590.9 211.4,591.8 211,592.7 C210.9,592.9 210.9,593 210.8,593.2 C210.4,594 210.1,594.9 209.7,595.7 L209.5,596.3 C209.3,596.8 209.1,597.2 208.9,597.7 L261.7,646.6 C263.2,648 263.3,650.4 261.9,651.9 C261.9,651.9 261.9,651.9 261.8,652 L282.9,654.9 C282.1,638.5 292,623.5 307.4,617.8 L306.3,617.5 C248.4,604.7 237.9,575.6 236.2,562.5 C235.9,560.3 235.8,558.1 236,556 C234.2,557.9 232.4,559.9 230.7,561.9 C230,562.5 229.3,563.3 228.6,564.1 Z" id="Path" fill="#EF6949" fill-rule="nonzero"></path>
            <path d="M352.2,672.8 C341.2,690.4 318.1,695.7 300.5,684.7 C297.2,682.6 294.2,680 291.7,677 L255.6,719.4 L254.5,720.6 C261.5,723.4 268.6,725.8 276,727.6 C298.3,733.2 324.1,735.5 351.6,735.5 C370.2,735.6 388.7,734.4 407.1,731.7 L406,727.6 L395,688.7 C392.2,689.6 389.3,690.1 386.4,690.3 C372.7,691.2 359.5,684.4 352.2,672.8 Z" id="Path" fill="#EF6949" fill-rule="nonzero"></path>
            <path d="M220.5,575.2 L220.6,575" id="Path"></path>
            <path d="M209.4,596.1 L209.6,595.5" id="Path"></path>
            <path d="M218.7,578.1 L218.8,577.9" id="Path"></path>
            <path d="M210.7,593 C210.8,592.8 210.8,592.7 210.9,592.5" id="Path"></path>
            <path d="M215.2,583.9 L215.4,583.6" id="Path"></path>
            <path d="M216.9,581 L217,580.8" id="Path"></path>
            <path d="M213.6,586.9 C213.7,586.8 213.7,586.7 213.8,586.5" id="Path"></path>
            <path d="M212.1,590 L212.3,589.6" id="Path"></path>
            <path d="M291.4,554.5 C286.7,554.5 282.6,557.9 281.8,562.5 C281.7,563.1 281.6,563.7 281.6,564.3 C281.8,569.7 286.3,574 291.7,573.8 C296.9,573.6 301,569.5 301.2,564.3 C301.2,563.7 301.1,563.1 301,562.5 C300.1,557.8 296.1,554.5 291.4,554.5 Z" id="Path" fill="#FCE3D9" fill-rule="nonzero"></path>
            <path d="M421.4,656.7 C423.2,639.6 413.2,623.4 397,617.5 L398.1,617.2 C404.7,615.8 411.2,613.9 417.6,611.7 C472.3,592.7 468.4,557.6 468.3,556.8 L468.3,556.8 L468.3,556.8 C465.3,553.1 462.1,549.7 458.5,546.6 C447.2,536.3 434.2,527.9 420.3,521.6 C407.3,515.7 393.5,511.7 379.3,509.6 L379.2,509.6 C374.1,508.8 368.8,508.3 363.2,508 L369.2,562.4 L377.1,634.7 L377.2,634.7 C377.2,634.9 377.2,635.1 377.2,635.2 L377.2,635.3 L377.2,635.3 C376.8,649.2 365.2,660.1 351.4,659.7 C338.1,659.3 327.3,648.6 327,635.3 L327,635.3 L327,635.2 C327,635 327,634.8 327,634.7 L327,634.7 L334.5,562.4 L340.2,508.2 C329.5,508.9 318.9,510.4 308.4,512.9 L308.1,513 C299,515.2 290,518.2 281.4,522 C267.6,527.9 254.9,536.2 244,546.6 C241.1,549.4 238.4,552.4 236,555.7 L236,555.7 C235.8,557.9 235.9,560.1 236.2,562.2 C237.9,575.3 248.4,604.4 306.3,617.2 L307.4,617.5 C292,623.2 282,638.2 282.9,654.6 L287.7,655.3 C293.8,656.1 298,661.8 297.2,667.9 C296.9,670 296,672 294.7,673.6 L291.8,677 C305.1,692.9 328.8,694.9 344.6,681.6 C347.6,679.1 350.2,676.1 352.3,672.8 C359.6,684.5 372.8,691.2 386.5,690.3 C389.4,690.1 392.3,689.6 395.1,688.7 L387.5,661.7 C387,659.9 388,658.1 389.8,657.6 C391.1,657.2 392.5,657.7 393.3,658.7 L411.7,678.2 C414,675.7 416,672.8 417.6,669.7 C419.7,665.7 420.9,661.3 421.4,656.7 Z M297.4,516.4 L297.2,516.5 L297.4,516.4 Z M291.4,594.1 C274.9,594.1 261.5,580.7 261.5,564.2 L261.5,564.2 C261.5,563.6 261.5,563 261.6,562.4 C262.6,545.9 276.8,533.4 293.2,534.4 C308.3,535.3 320.3,547.3 321.2,562.4 C321.2,563 321.3,563.6 321.3,564.2 C321.2,580.8 307.9,594.1 291.4,594.1 C291.4,594.1 291.4,594.1 291.4,594.1 Z M417,520.8 L415.8,520.3 L417,520.8 Z M413.3,519.2 L411.9,518.7 L413.3,519.2 Z M409.5,517.7 L408.1,517.2 L409.5,517.7 Z M405.6,516.3 L404.3,515.8 L405.6,516.3 Z M401.1,514.8 L400.3,514.6 L401.1,514.8 Z M396.5,513.4 L395.4,513.1 L396.5,513.4 Z M392.5,512.4 C392,512.3 391.5,512.2 391,512 C391.5,512.1 392,512.2 392.5,512.4 L392.5,512.4 Z M388.5,511.4 L387,511.1 L388.5,511.4 Z M384.3,510.5 L382.8,510.2 L384.3,510.5 Z M382.9,564.2 C382.9,563.6 382.9,563 383,562.4 C384,545.9 398.2,533.4 414.7,534.5 C431.2,535.5 443.7,549.7 442.6,566.2 C441.7,580.1 431.4,591.6 417.6,593.8 C416,594.1 414.4,594.2 412.8,594.2 C396.3,594.1 382.9,580.8 382.9,564.2 L382.9,564.2 Z" id="Shape" fill="#FCE3D9" fill-rule="nonzero"></path>
            <path d="M297.2,516.5 L297.4,516.4" id="Path"></path>
            <path d="M395.3,513.1 L396.4,513.4" id="Path"></path>
            <path d="M411.9,518.7 L413.3,519.2" id="Path"></path>
            <path d="M400.3,514.6 L401.1,514.8" id="Path"></path>
            <path d="M391,512 C391.5,512.1 392,512.2 392.5,512.4" id="Path"></path>
            <path d="M404.2,515.8 L405.5,516.3" id="Path"></path>
            <path d="M386.9,511.1 L388.4,511.4" id="Path"></path>
            <path d="M408,517.2 L409.4,517.7" id="Path"></path>
            <path d="M415.8,520.2 L417,520.7" id="Path"></path>
            <path d="M384.3,510.5 L382.8,510.2" id="Path"></path>
            <path d="M417.6,572.8 C422.3,570.1 424,564.2 421.3,559.4 C418.6,554.7 412.7,553 407.9,555.7 C405.4,557.1 403.6,559.6 403.1,562.4 C403,563 402.9,563.6 402.9,564.2 C402.9,569.6 407.3,574 412.7,574 C414.5,574.1 416.1,573.6 417.6,572.8 L417.6,572.8 Z" id="Path" fill="#FCE3D9" fill-rule="nonzero"></path>
            <path d="M347.2,507.3 L345.8,507.3" id="Path"></path>
            <path d="M342.8,507.5 C342.3,507.5 341.8,507.5 341.3,507.6" id="Path"></path>
            <polygon id="Path" fill="#FF8661" fill-rule="nonzero" points="326.9 635.4 326.9 635.4 326.9 635.3"></polygon>
            <path d="M326.9,635.2 L326.9,635.3 C327.3,649.2 338.9,660.1 352.7,659.7 C366,659.3 376.8,648.6 377.1,635.3 L377.1,635.2 C377.1,635 377.1,634.8 377.1,634.7 L326.8,634.7 C326.9,634.9 326.9,635 326.9,635.2 Z" id="Path" fill="#04216E" fill-rule="nonzero"></path>
            <path d="M291.4,534.4 C275.6,534.4 262.6,546.7 261.6,562.4 C261.6,563 261.5,563.6 261.5,564.2 C261.8,580.7 275.4,593.8 291.9,593.5 C308,593.2 320.9,580.3 321.2,564.2 C321.2,563.6 321.2,563 321.1,562.4 C320.2,546.7 307.1,534.4 291.4,534.4 Z M291.4,574.1 C286,574.1 281.6,569.7 281.6,564.3 C281.6,563.7 281.7,563.1 281.8,562.5 C282.8,557.2 288,553.7 293.3,554.7 C297.2,555.5 300.3,558.5 301.1,562.5 C301.2,563.1 301.3,563.7 301.3,564.3 C301.2,569.7 296.8,574.1 291.4,574.1 Z" id="Shape" fill="#04216E" fill-rule="nonzero"></path>
            <path d="M417.6,593.7 C433.9,591.1 444.9,575.7 442.3,559.4 C439.7,543.1 424.3,532.1 408,534.7 C394.2,536.9 383.8,548.4 383,562.4 C383,563 382.9,563.6 382.9,564.2 C382.9,580.7 396.3,594.1 412.8,594.1 C414.4,594.1 416,594 417.6,593.7 Z M403,564.3 C403,563.7 403.1,563.1 403.2,562.5 C404.2,557.2 409.4,553.7 414.7,554.8 C420,555.8 423.5,561 422.4,566.3 C421.3,571.6 416.2,575.1 410.9,574 C406.3,573 403,569 403,564.3 Z" id="Shape" fill="#04216E" fill-rule="nonzero"></path>
            <path d="M443.8,652.8 L502.7,652.8 L502.8,651.7 C502.9,650.9 502.9,650 503,649.1 C503.1,648.2 503.1,647.6 503.1,646.8 C503.1,646.4 503.1,646 503.1,645.5 C503.1,644.3 503.2,643.1 503.2,641.9 L503.2,641.9 L503.2,641.6 C503.2,640.6 503.2,639.6 503.2,638.5 C503.2,638.1 503.2,637.7 503.2,637.3 C503.2,636.6 503.2,635.8 503.1,635.1 C503.1,634.7 503,634.2 503,633.8 C503,633.1 502.9,632.4 502.8,631.7 C502.8,631.3 502.7,630.9 502.7,630.4 C502.6,629.7 502.6,629 502.5,628.3 C502.5,627.9 502.4,627.5 502.3,627 C502.2,626.3 502.1,625.6 502,624.9 C501.9,624.5 501.9,624.1 501.8,623.7 C501.7,623 501.6,622.3 501.5,621.6 L501.3,620.5 C501.2,619.8 501,619 500.9,618.3 L500.7,617.2 C500.5,616.5 500.4,615.7 500.2,615 C500.1,614.7 500,614.3 500,614 C499.8,613.2 499.6,612.5 499.4,611.8 C499.3,611.5 499.2,611.2 499.1,610.9 C498.9,610.1 498.7,609.4 498.5,608.6 C498.4,608.3 498.3,608 498.2,607.8 C498,607 497.7,606.2 497.5,605.5 C497.4,605.2 497.3,605 497.2,604.7 C496.9,603.9 496.7,603.1 496.4,602.3 L496.1,601.6 C495.8,600.8 495.5,600 495.2,599.2 C495.1,599 495,598.8 495,598.5 L494.5,597.2 L494.5,597.2 L441.4,646.3 C439.9,647.7 439.8,650.1 441.3,651.6 C441.8,652.4 442.7,652.8 443.8,652.8 Z" id="Path" fill="#04216E" fill-rule="nonzero"></path>
            <path d="M462.8,665 C460.7,665 459,666.7 459,668.8 C459,670.3 459.8,671.6 461.2,672.2 L491.7,686.5 C491.8,686.3 492,686 492.1,685.8 C492.6,685 493.1,684.1 493.6,683.3 C493.8,683 493.9,682.7 494.1,682.4 C494.5,681.6 495,680.7 495.4,679.9 C495.6,679.4 495.9,678.9 496.1,678.4 C496.4,677.7 496.7,677 497,676.3 C497.5,675.1 498,673.8 498.5,672.5 C499.3,670.2 500,667.7 500.6,665.2 L462.8,665.2 L462.8,665 Z" id="Path" fill="#04216E" fill-rule="nonzero"></path>
            <path d="M261.6,646.3 L208.8,597.4 L208.8,597.4 L208.4,598.5 L208.2,599.1 C207.9,599.9 207.6,600.7 207.3,601.6 C207.2,601.8 207.1,602.1 207.1,602.3 C206.8,603.1 206.5,603.9 206.3,604.7 C206.2,605 206.1,605.2 206,605.5 C205.7,606.3 205.5,607.1 205.3,607.9 C205.2,608.2 205.1,608.5 205,608.7 C204.8,609.5 204.6,610.2 204.4,611 C204.3,611.3 204.2,611.6 204.2,611.9 C204,612.7 203.8,613.4 203.6,614.2 L203.4,615.2 C203.2,615.9 203.1,616.7 202.9,617.4 C202.8,617.7 202.7,618.1 202.7,618.4 C202.6,619.1 202.4,619.9 202.3,620.6 C202.2,621 202.2,621.3 202.1,621.7 C202,622.4 201.9,623.2 201.7,623.9 C201.6,624.3 201.6,624.7 201.5,625.1 C201.4,625.8 201.3,626.5 201.2,627.3 C201.2,627.7 201.1,628.1 201.1,628.5 C201,629.2 201,629.9 200.9,630.6 L200.8,631.8 C200.7,632.5 200.7,633.3 200.6,634 L200.5,635.2 C200.5,636 200.4,636.8 200.4,637.6 C200.4,637.9 200.4,638.3 200.4,638.6 C200.4,639.7 200.3,640.9 200.3,642 C200.3,643.4 200.3,644.8 200.4,646.2 C209.7,645.4 219.1,645.6 228.4,646.9 L262.1,651.6 C263.3,650.1 263.2,647.7 261.6,646.3 C261.6,646.3 261.6,646.3 261.6,646.3 Z" id="Path" fill="#04216E" fill-rule="nonzero"></path>
            <path d="M1.2,407.6 L23.8,422.8 L114.2,410.9 C114.2,386.1 95.7,365.1 71.1,361.9 L51.2,359.3 L24.8,355.8 C21.1,362.7 16.7,369.3 11.6,375.2 C9.9,377.2 8,379.2 6.1,381.2 C4.5,382.8 2.9,384.3 1.2,385.8 L1.2,352.7 L1.2,352.7 L1,352.7 L1,407.4 L1.2,407.6 L1.2,407.6 Z" id="Path" fill="#04216E" fill-rule="nonzero"></path>
            <path d="M74.6,662.4 L74.6,662.4 C74.6,637.6 56.2,616.6 31.6,613.3 L1.4,609.3 L1.2,609.3 L1,609.3 L1,672 L1.2,672 L1.3,672 L74.6,662.4 Z" id="Path" fill="#04216E" fill-rule="nonzero"></path>
            <path d="M71.1,446.3 L53.1,443.9 C69.8,458.4 81.7,477.5 87.4,498.8 L114.2,495.3 C114.1,470.5 95.7,449.5 71.1,446.3 Z" id="Path" fill="#04216E" fill-rule="nonzero"></path>
            <path d="M91,537.8 L88.8,583 L114.1,579.7 C114.1,562.6 105.4,546.8 91,537.8 Z" id="Path" fill="#04216E" fill-rule="nonzero"></path>
            <path d="M52.3,587.7 L24.7,569.9 C16.1,564.4 8.2,557.8 1.2,550.3 L1.2,550.3 L1,550.1 L1,594.5 L1.2,594.5 L1.2,594.5 L52.3,587.7 Z" id="Path" fill="#04216E" fill-rule="nonzero"></path>
            <path d="M15.3,758 C26.4,745.9 36.6,734.1 45.9,723.2 C48.4,720.2 52.4,715.2 57,709.5 C40.2,699.3 21.1,693.2 1.5,691.8 L1.3,691.8 L1,691.8 L1,773.4 L1.3,773.1 C6.1,768 10.8,763 15.3,758 Z" id="Path" fill="#5683E0" fill-rule="nonzero"></path>
            <path d="M199.8,824.5 C179.3,792.1 145,771 106.8,767.2 C104.3,761.3 101.4,755.6 98,750.2 L83.2,747.8 L71.9,752.6 C55.6,759.5 40.1,768.1 25.6,778.3 C17.8,783.7 9.8,789.9 1.3,797.1 L1,797.4 L1,914.4 L216.7,914.4 C222.7,883.4 216.7,851.2 199.8,824.5 Z" id="Path" fill="#5683E0" fill-rule="nonzero"></path>
            <path d="M80.2,727.8 C77.1,724.7 73.8,721.8 70.4,719 C65.9,724.8 61.9,729.8 58.4,733.9 C50.9,742.7 42.8,752 34.2,761.7 C45.4,755.3 56.7,749.7 68.1,744.7 L68.1,744.7 L68.6,744.5 C70,743.9 74.3,742.2 80.7,739.8 L85.7,733.7 C84,731.6 82.1,729.7 80.2,727.8 Z" id="Path" fill="#5683E0" fill-rule="nonzero"></path>
            <path d="M1.2,550.3 C8.2,557.8 16.1,564.4 24.7,569.9 L52.3,587.7 L78.6,604.7 C76.2,599.2 74.4,595.7 74.4,595.7 L69.2,585.5 L38.8,526.4 L28.6,506.6 L8,466.6 L9,466.2 L32.3,506 L44.5,527 L77.8,584.3 L81.8,591.1 C84,594.8 86,598.6 87.9,602.5 L87.9,602.5 L88.9,582.8 L91,537.7 L91.1,535.7 C91.8,523.3 90.5,510.8 87.3,498.8 C81.6,477.5 69.7,458.4 53.1,443.9 C49.1,440.4 44.9,437.1 40.4,434.1 L23.7,422.8 L1.2,407.6 L1.2,407.6 L1,407.5 L1,550.1 L1.2,550.3 L1.2,550.3 Z" id="Path" fill="#2C52CF" fill-rule="nonzero"></path>
            <path d="M1215.3,353.8 L1212.7,368.4 L1214.3,368.5 C1215.2,368.5 1216.1,368.6 1216.9,368.7 L1219.6,369 C1246.4,372 1268.3,382.7 1282.6,399.3 C1296,392.9 1308,384 1318,373.1 C1286,359 1252.7,348.1 1218.5,340.5 C1218.2,341.5 1217.9,342.4 1217.7,343.4 C1216.8,346.7 1216,350.2 1215.3,353.8 Z" id="Path" fill="#5683E0" fill-rule="nonzero"></path>
            <path d="M255.6,719.3 L291.7,677 L294.6,673.6 C298.6,668.9 298,661.9 293.3,657.9 C291.7,656.5 289.7,655.6 287.6,655.4 L282.8,654.7 L261.7,651.7 L228,647 C218.7,645.7 209.3,645.4 200,646.3 C169.8,649.1 142.7,663.7 122.3,688.7 L85.6,733.7 L80.6,739.8 L88.4,736.9 C114.6,727.1 161.2,709.9 198.8,696.1 C198,694.1 197.2,692.1 196.4,690.1 C195.8,688.5 196.6,686.6 198.2,686 C199.2,685.6 200.2,685.7 201.1,686.3 L210,692.1 L214.1,690.6 C238.9,681.5 256.7,675 256.7,675 L215.4,692.4 L212.4,693.7 L221.6,699.7 L254.2,720.7 L254.4,720.9 L254.4,720.9 L255.6,719.3 Z" id="Path" fill="#2C52CF" fill-rule="nonzero"></path>
            <path d="M83.2,747.8 L98,750.2 L148.9,758.4 C175,762.6 200,758.6 221.5,747 C213.7,731.2 206.5,715 199.9,698.7 L93.6,743.5 L83.2,747.8 Z" id="Path" fill="#2C52CF" fill-rule="nonzero"></path>
            <path d="M218.1,536 L256.6,516.8 C266.2,512.4 275.3,506.8 283.6,500.2 C300.3,487 313.2,469.6 321,449.7 C325.2,438.9 328,427.5 329.2,415.9 L330.2,406.9 L336.4,350.5 C337.1,343.8 332.3,337.8 325.6,337.1 C323.3,336.8 321,337.3 318.9,338.3 L309.3,343 L270.6,362 L259.8,367.3 C218.8,387.4 193.7,424.2 189.7,469.9 L184.5,528.9 L183,545.6 L183.1,545.6 L189.6,536.9 C195.2,529.4 200.8,522 206.3,514.7 C218.5,498.4 230.3,482.7 241.1,468.3 C258.9,444.6 274,424.4 284.1,410.8 L297.7,392.6 C297.7,392.6 292.9,399.8 284.5,412.3 C275.5,425.8 262.3,445.3 246.8,468.2 C235.3,485.2 222.5,504 209.1,523.7 C204.6,530.3 200,537 195.4,543.7 L191.7,549.2 L197.9,546.1 L218.1,536 Z" id="Path" fill="#2C52CF" fill-rule="nonzero"></path>
            <path d="M25.7,778.3 C40.2,768.1 55.7,759.5 72,752.6 L83.3,747.8 L93.6,743.5 L200,698.8 C199.6,697.9 199.3,697 198.9,696.1 C161.3,709.9 114.7,727.1 88.5,736.9 L80.7,739.8 C74.3,742.2 70,743.9 68.6,744.5 L68.1,744.7 L68.1,744.7 C56.8,749.7 45.5,755.4 34.2,761.7 C42.8,752 50.9,742.7 58.4,733.9 C61.9,729.8 65.9,724.8 70.4,719 C99.3,682 147.2,613.7 191.7,549.1 L195.4,543.6 C200,536.9 204.6,530.2 209.1,523.6 C222.6,504 235.4,485.1 246.9,468.2 C262.5,445.2 275.6,425.7 284.6,412.3 C292.9,399.9 297.8,392.6 297.8,392.6 L284.2,410.8 C274.1,424.4 259,444.6 241.2,468.3 C230.4,482.7 218.6,498.4 206.4,514.7 C200.9,522 195.3,529.4 189.7,536.9 L183.2,545.6 C155.5,582.3 127.2,619.7 103.8,650.1 C100.6,633.7 95.3,617.7 87.9,602.7 C86,598.8 83.9,595 81.8,591.3 L77.8,584.5 L44.5,527.2 L32.3,506.2 L9.1,466.1 L8.1,466.5 L28.7,506.5 L38.9,526.3 L69.4,585.4 L74.6,595.6 C74.6,595.6 76.4,599.1 78.8,604.6 C86.2,621.8 99.9,658.7 86.2,672.3 C86.2,672.3 69.6,693.7 57.1,709.5 C52.5,715.2 48.5,720.2 46,723.2 C36.7,734.1 26.5,745.9 15.4,758 C10.9,763 6.2,768 1.4,773 L1,773.4 L1,797.4 L1.3,797.1 C9.8,789.9 17.9,783.7 25.7,778.3 Z" id="Path" fill="#04216E" fill-rule="nonzero"></path>
            <path d="M256.8,674.9 C256.8,674.9 238.9,681.4 214.2,690.5 L210.1,692 L212.5,693.5 L215.5,692.2 L256.8,674.9 Z" id="Path" fill="#04216E" fill-rule="nonzero"></path>
            <path d="M577.2,621.9 L577.6,621.3 L577.3,620.7 C577.2,621.1 577.2,621.5 577.2,621.9 Z" id="Path" fill="#5683E0" fill-rule="nonzero"></path>
            <path d="M525.8,686.6 C530.1,668.4 531.3,649.5 529.4,630.9 C521.5,630.7 514.3,626.5 510.3,619.7 L512.7,701 C517.2,696.2 521.7,691.3 525.8,686.6 Z" id="Path" fill="#5683E0" fill-rule="nonzero"></path>
            <path d="M507.4,524.1 L509.6,597.6 C515.4,586.4 529.2,582 540.4,587.8 C551.6,593.6 556,607.4 550.2,618.6 C547.7,623.5 543.4,627.4 538.2,629.4 C539.7,643.9 539.4,658.5 537.4,672.9 C546.4,662.1 555.9,650.5 564.9,638.5 C567.7,630 568.7,618 569,606.2 C552.4,576.9 533.7,548.8 513,522.2 C511.9,520.8 509.9,520.6 508.5,521.7 C507.9,522.2 507.4,523.1 507.4,524.1 Z" id="Path" fill="#5683E0" fill-rule="nonzero"></path>
            <path d="M560.6,706.5 C540.4,709.8 522.4,717.9 513.4,722.5 L515.4,788.2 L483,753.7 L478.2,748.7 L450.8,719.7 L450.8,719.7 L417.6,684.4 L411.7,678.2 L393.3,658.7 C392.2,657.3 390.1,657 388.6,658.2 C387.6,659 387.1,660.4 387.5,661.7 L395.1,688.7 L406,727.5 L407.1,731.6 L437,838.3 L369.5,794.8 L281.6,738.1 L265.3,727.6 L254.6,720.7 L254.4,720.5 L221.8,699.5 L212.6,693.5 L210.2,692 L201.3,686.2 C199.8,685.2 197.9,685.7 196.9,687.1 C196.3,688 196.2,689 196.6,690 C197.4,692 198.2,694 199,696 C199.4,696.9 199.7,697.8 200.1,698.7 C206.7,715 213.9,731.2 221.7,747 C237.5,779.2 256.3,809.8 277.9,838.5 C283.8,846.2 289.8,853.7 296.1,861.1 C309,876.1 322.9,890.2 337.7,903.4 C347.7,901.7 357.9,899.8 368.3,897.9 L330.6,848 L287.8,791.2 C287.3,790.5 287.4,789.5 288.1,788.9 C288.6,788.5 289.4,788.4 290,788.8 L377,844 L440.1,884 C456.8,880.6 473.9,877 491.4,873.3 L460.4,780.3 C460.1,779.4 460.6,778.5 461.5,778.2 C462.1,778 462.8,778.2 463.3,778.7 L538.1,862.9 C542.8,861.8 547.5,860.7 552.2,859.6 L568.4,718.4 C564.5,715.4 561.8,711.2 560.6,706.5 Z" id="Path" fill="#5683E0" fill-rule="nonzero"></path>
            <path d="M632.8,760.2 C629.2,738.8 623.1,717.9 614.7,697.9 C606.9,679.6 598.1,660.7 588.4,641.7 C584,643.1 579.4,644.6 574.9,646.2 C567.7,655.7 559.8,665.7 551.2,676 C541.4,687.9 531.8,698.8 523.5,708.1 C535.2,703.1 547.5,699.5 560.1,697.4 C560.2,696.9 560.2,696.4 560.3,696 C562.9,683.7 575.1,675.8 587.4,678.4 C604.4,682 612.9,703.6 597.3,719 C596.2,720.1 594.8,721 593.3,721.6 C585.5,724.6 578.4,724.1 572.7,721.4 L598.7,820.1 L605.7,846.7 C615.6,844.2 625.5,841.6 635.5,839 C638.1,812.7 637.2,786.2 632.8,760.2 Z" id="Path" fill="#5683E0" fill-rule="nonzero"></path>
            <path d="M1439.2,523.2 C1432.4,534.7 1427.9,547.4 1425.9,560.6 C1411.8,554.8 1396.6,552 1381.4,552.6 C1379.3,555.1 1376.6,557.2 1373.6,558.7 C1376.6,575.8 1380,613 1380.5,636.3 C1382,634.2 1383.5,632 1385.1,629.8 C1388.6,624.9 1391.6,621 1394.1,617.9 C1387.6,609.9 1388.8,598.2 1396.8,591.7 C1404.8,585.2 1416.5,586.4 1423,594.4 C1429.5,602.4 1428.3,614.1 1420.3,620.6 C1414.9,624.9 1407.6,626 1401.2,623.3 C1397.8,627.6 1393.7,633.1 1389.5,638.9 C1404.9,638.8 1417,639.1 1425.5,639.5 L1432,624.9 C1435.1,617.4 1439.4,612.3 1447.4,613.4 L1450.6,613.8 L1474.5,561.1 C1462,549.2 1450.2,536.5 1439.2,523.2 Z" id="Path" fill="#EF6949" fill-rule="nonzero"></path>
            <path d="M1347,588.4 C1347,592.1 1345.9,595.6 1343.9,598.7 C1351.3,607.5 1360.6,619.4 1367.8,631.1 C1367.2,612.4 1364.2,577.4 1361.3,561 C1357.9,560.7 1354.6,559.7 1351.6,558.1 C1343.1,560.9 1335.1,564.9 1327.6,569.8 C1327.8,569.8 1328.1,569.8 1328.3,569.8 C1338.6,569.7 1347,578.1 1347,588.4 C1347,588.4 1347,588.4 1347,588.4 Z" id="Path" fill="#EF6949" fill-rule="nonzero"></path>
            <path d="M1327.5,625.8 C1329.1,626 1330.6,626.6 1332,627.4 C1337.1,630.4 1341.1,635 1343.2,640.5 C1349.9,640.1 1356.3,639.8 1362.4,639.6 C1355.6,627.6 1345.3,614.4 1337.3,604.9 C1328.3,609.9 1316.9,606.7 1311.9,597.6 C1309.6,593.5 1309,588.7 1310.1,584.2 C1293.7,601 1283.3,622.7 1280.7,646.1 C1287.1,645.3 1293.4,644.7 1299.5,644.1 C1301.7,632.8 1312.2,623.6 1327.5,625.8 Z" id="Path" fill="#EF6949" fill-rule="nonzero"></path>
            <path d="M460.2,780.4 L491.2,873.4 C506.5,870.1 522.1,866.6 537.9,863 L463,778.8 C462.4,778.1 461.4,777.9 460.7,778.5 C460.2,778.9 460,779.7 460.2,780.4 Z" id="Path" fill="#4269E1" fill-rule="nonzero"></path>
            <path d="M572.8,721.3 C571.2,720.5 569.7,719.6 568.3,718.4 L552,859.7 C569.6,855.5 587.5,851.2 605.5,846.7 L605.7,846.7 L598.7,820.1 L572.8,721.3 Z" id="Path" fill="#4269E1" fill-rule="nonzero"></path>
            <path d="M1.2,189 C4.1,187.4 7.6,188 9.9,190.3 L11.5,191.9 C18.8,199.3 30.6,211.2 42.8,222.8 C48.4,228.1 54,233.3 59.4,238.1 C77.2,242.4 95.6,243.8 113.9,242.1 C113.9,240.7 114.1,239.4 114.4,238 C117,225.9 128.9,218.3 141,220.9 C153.1,223.5 160.7,235.4 158.1,247.5 C155.5,259.6 143.6,267.2 131.5,264.6 C124.1,263 118.1,257.8 115.4,250.8 C101.2,252.2 86.9,251.8 72.8,249.7 C83.3,258.6 94.6,267.9 106.3,276.9 C120.8,281.8 145.9,281.6 162.3,280.8 C162.3,280.7 162.3,280.6 162.4,280.4 C163.6,275 167.4,270.5 172.6,268.4 C180.7,250.2 183.4,230.1 180.6,210.5 C180.6,210.5 179,198 172.9,172.6 C171,164.7 168.7,155.5 165.8,145.1 C165.8,145.1 183.5,147.1 207.5,142.4 C218.8,140.3 229.7,136.9 240.3,132.4 C240.9,132.1 241.5,131.9 242.2,131.6 C246.4,129.7 250.7,127.6 255,125.2 C265.7,119.1 275.5,111.6 284.3,102.9 C291.5,95.7 298,87.8 303.5,79.2 C310.2,68.8 315.8,57.8 320.2,46.2 C313.1,44 306.2,42 299.3,40 C250.5,26.4 201,16.2 150.9,9.5 C152.4,18.1 154.5,26.6 157.3,34.8 C169.7,32.3 181.7,40.4 184.1,52.7 C186.5,65 178.5,77.1 166.2,79.5 C153.8,82 141.8,73.9 139.4,61.6 C137.6,52.6 141.4,43.4 149,38.2 C145.7,28.4 143.2,18.4 141.6,8.2 L134.2,7.3 C129.7,16.3 125.2,25.7 120.9,35.3 C119.5,50.9 125.5,75.8 130.1,91.9 L130.5,91.9 C140,91.8 147.8,99.5 147.8,109 C147.9,118.5 140.2,126.3 130.7,126.3 C127.7,126.3 124.7,125.5 122,124 C117.4,121.4 114.3,116.8 113.6,111.5 C112.6,104.8 115.7,98.1 121.4,94.5 C118.2,83.4 114.4,68.1 112.6,54 C105.3,71.5 93.5,105.6 89.6,121.4 C92.6,123.2 95.2,125.6 97.2,128.5 C99.6,132.1 101,136.4 101,140.8 C101,141.5 101,142.3 100.9,143 C99.8,155.6 88.8,164.9 76.2,163.9 C66.5,163.1 58.4,156.2 56,146.8 C55.7,145.6 55.5,144.3 55.3,143 C54.3,130.4 63.6,119.4 76.2,118.4 C76.6,118.4 77,118.3 77.4,118.3 C81.5,101.6 93.9,65.8 103.1,44 C100.9,45.3 98.6,46.7 96.2,48 C90.6,51.5 86,54 82.2,55.9 C83,59 82.8,62.2 81.8,65.2 C78.8,74.2 69.1,79.1 60.1,76.1 C51.1,73.1 46.2,63.5 49.2,54.5 C52.2,45.5 61.9,40.6 70.9,43.6 C73.6,44.5 76,46 78,48.1 C86.5,43.8 98.4,36.9 109.6,30 C113.1,22.3 116.9,14.3 121,6 C49.6,-1.5 4.5,1.5 1.2,1.8 L1.2,189 Z" id="Path" fill="#5683E0" fill-rule="nonzero"></path>
            <path d="M159.8,289.7 C147.3,290.3 134.8,290 122.3,288.9 C128.4,293.3 136.9,299 145.7,304.7 C147.4,303.2 149.1,301.7 150.7,300.1 C154,296.8 157,293.3 159.8,289.7 Z" id="Path" fill="#5683E0" fill-rule="nonzero"></path>
            <path d="M110.7,295.7 C111.5,298.1 112.2,300.6 113,303.1 C114.8,309.3 116.2,314.3 117.2,318.3 C119.4,318.3 121.6,318.7 123.7,319.6 C127.8,317.5 131.7,315.2 135.5,312.6 C126.5,306.8 117.7,300.8 110.7,295.7 Z" id="Path" fill="#5683E0" fill-rule="nonzero"></path>
            <path d="M41.6,325.1 C61.1,331.9 82.1,332.8 102.1,327.7 C103.6,324.8 105.8,322.3 108.7,320.7 C106.5,311.6 102.6,298.8 98.5,286.6 C89.2,279.5 79.6,271.7 69.5,263.2 C58,253.4 47.3,244 38.3,235.8 C43.2,247.3 46.6,259.4 48.5,271.7 C49,271.8 49.4,271.8 49.9,271.9 C61.9,274.6 69.5,286.6 66.8,298.6 C64.1,310.6 52,318.2 40,315.5 C39.8,315.5 39.6,315.4 39.4,315.3 C39.2,315.3 39.1,315.2 38.9,315.2 C27.9,311.9 21.1,300.9 23.1,289.6 C24.1,284.4 26.9,279.7 31,276.4 C33.5,274.3 36.5,272.8 39.6,272 C38.3,263.8 36.3,255.7 33.6,247.9 C30.3,238.2 26.2,228.8 21.2,219.8 C17.2,216 10,209.7 4.2,204.6 L1.2,202 L1.2,385.8 C2.9,384.3 4.5,382.8 6.1,381.2 C8,379.3 9.9,377.3 11.6,375.2 C16.7,369.3 21.1,362.8 24.7,355.8 C30.2,345.5 33.8,334.3 35.6,322.7 C37.7,323.6 39.6,324.4 41.6,325.1 Z" id="Path" fill="#5683E0" fill-rule="nonzero"></path>
            <path d="M924.2,604.3 C923.9,593.2 924.7,582.2 926.6,571.3 L910.1,592.5 L924.2,604.3 Z" id="Path" fill="#5683E0" fill-rule="nonzero"></path>
            <path d="M983.6,510.7 L938.5,556.3 C937.7,560.4 936.9,565.4 936.3,570.8 C935.5,577.5 935.1,584.3 935.1,591 C937.7,588.2 940.4,585.6 943.3,583.1 C950.4,576.9 958.1,571.6 966.5,567.2 L986.1,508.1 C985.3,509 984.5,509.9 983.6,510.7 Z" id="Path" fill="#5683E0" fill-rule="nonzero"></path>
            <path d="M837,484 C832.1,489.6 827.2,495.2 822.5,501 L829.9,524.5 L845.7,538 L841.2,485.8 C841.3,484.5 840.4,483.3 839.1,483.2 C838.3,483.1 837.5,483.4 837,484 Z" id="Path" fill="#5683E0" fill-rule="nonzero"></path>
            <path d="M913.5,726.8 L914.4,724.1 C906.8,708.1 902.8,690.6 902.7,672.9 C902.6,653.3 907.4,633.9 916.7,616.6 C911.8,612.2 906.9,607.7 901.9,603.1 L856.6,661.6 L851.1,598 L847.1,552.4 C839.5,545.3 831.9,538.2 824.4,531.1 L815.4,528.9 L803.1,525.8 C782.9,553.3 765.3,582.7 751.6,613.8 L771.4,638.2 C776.6,644.7 775.5,654.1 769,659.3 C767.5,660.5 765.8,661.4 764,661.9 L764,661.9 C757.3,663.8 750.2,660.9 746.8,654.9 L740.6,644.1 C726,697.7 734.8,755 765,801.7 C774.3,798.8 783.7,795.8 793,792.8 C784.5,771.5 781.9,747 782.7,722.9 C784.3,672.5 800.9,623.7 810.5,609.3 C811.1,608.4 812.4,608.1 813.3,608.8 C813.8,609.1 814.1,609.7 814.2,610.3 L817.8,671.9 L820.6,720.1 L823.1,763 L837.9,744.3 L881.5,689.3 C882.1,688.5 883.3,688.4 884.1,689 C884.7,689.5 884.9,690.3 884.7,691 L865,768 C885,760.8 905,753.2 924.8,745.4 L926.9,744.5 C922.4,738.6 918.5,732.4 915.2,725.7 L913.5,726.8 Z" id="Path" fill="#5683E0" fill-rule="nonzero"></path>
            <path d="M1474.6,561.1 L1499.4,506.4 C1492.4,498.8 1485.4,491.6 1478.5,484.7 C1441.8,448.3 1405,420.3 1368.1,398.6 C1384.9,442.7 1407.1,484.1 1439.3,523.1 C1450.2,536.5 1462,549.2 1474.6,561.1 Z" id="Path" fill="#2C52CF" fill-rule="nonzero"></path>
            <path d="M77.9,48 C71.4,41.1 60.4,40.7 53.5,47.3 C46.6,53.8 46.2,64.8 52.8,71.7 C59.4,78.6 70.3,79 77.2,72.4 C79.3,70.4 80.9,67.9 81.8,65.2 C82.8,62.2 83,59 82.2,55.9 C86,54 90.6,51.6 96.3,48.3 C98.6,47 101,45.6 103.2,44.3 C94,66 81.6,101.8 77.5,118.4 C64.9,118.8 55,129.3 55.4,142 C55.4,142.4 55.4,142.8 55.5,143.2 C55.6,144.5 55.8,145.8 56.2,147 C59.3,159.2 71.8,166.6 84,163.4 C93.4,161 100.3,152.9 101.1,143.2 C101.2,142.5 101.2,141.7 101.2,141 C101.1,136.6 99.8,132.3 97.4,128.7 C95.5,125.8 92.9,123.3 89.8,121.6 C93.7,105.8 105.6,71.8 112.8,54.2 C114.6,68.3 118.4,83.5 121.6,94.7 C115.9,98.3 112.8,105 113.8,111.7 C114.5,116.9 117.6,121.6 122.2,124.2 C130.5,129 141,126.1 145.7,117.9 C150.5,109.6 147.6,99.1 139.4,94.4 C136.7,92.9 133.7,92.1 130.6,92.1 L130,92.1 C125.4,75.9 119.3,51 120.8,35.5 C125.1,26 129.6,16.6 134.1,7.5 C129.6,7 125.1,6.5 120.8,6 C116.7,14.3 112.9,22.3 109.4,30 C98.3,36.9 86.4,43.8 77.9,48 Z" id="Path" fill="#04216E" fill-rule="nonzero"></path>
            <path d="M139.1,59.9 C140.5,72.5 151.9,81.6 164.5,80.2 C177.1,78.8 186.2,67.4 184.8,54.8 C183.4,42.1 172,33 159.3,34.5 C158.6,34.6 157.9,34.7 157.3,34.8 C154.5,26.5 152.4,18.1 150.9,9.5 C147.8,9.1 144.6,8.7 141.6,8.3 C143.2,18.5 145.6,28.5 149,38.3 C141.9,43.1 138.1,51.4 139.1,59.9 Z" id="Path" fill="#04216E" fill-rule="nonzero"></path>
            <path d="M4.2,204.7 C10,209.8 17.2,216.1 21.2,219.9 C26.2,228.9 30.3,238.3 33.6,248 C36.3,255.8 38.3,263.9 39.6,272.1 C36.5,272.9 33.5,274.4 31,276.5 C26.9,279.8 24.1,284.5 23.1,289.7 C21.1,301 27.9,312 38.9,315.3 C39.1,315.3 39.2,315.4 39.4,315.4 C51.4,318.5 63.6,311.3 66.6,299.3 C69.6,287.3 62.5,275.1 50.5,272.1 C50.3,272 50.1,272 49.9,271.9 C49.4,271.8 49,271.7 48.5,271.7 C46.6,259.4 43.2,247.3 38.3,235.8 C47.3,244 58,253.5 69.5,263.2 C79.6,271.7 89.2,279.5 98.5,286.6 C102.6,298.8 106.5,311.6 108.7,320.7 C105.9,322.3 103.6,324.8 102.1,327.7 C101.3,329.3 100.7,331.1 100.5,332.9 C99.2,342.1 105.6,350.7 114.8,352 C124,353.3 132.6,346.9 133.9,337.7 C134.8,331.2 131.9,324.8 126.4,321.2 C125.5,320.6 124.6,320.1 123.6,319.7 C121.5,318.8 119.3,318.4 117.1,318.4 C116.1,314.4 114.8,309.4 112.9,303.2 C112.1,300.7 111.4,298.2 110.6,295.8 C117.6,300.9 126.3,306.9 135.4,312.8 C150.5,322.6 166.3,332.2 175.6,336.9 C173.1,349 180.9,360.8 193,363.3 C193.2,363.3 193.4,363.4 193.6,363.4 C205.8,365.5 217.4,357.4 219.5,345.3 C221.6,333.1 213.5,321.5 201.4,319.4 C194,318.1 186.4,320.6 181.3,326.1 C180,325.4 178.5,324.6 176.9,323.8 C168.4,319.1 156.8,312 145.7,304.9 C136.8,299.2 128.3,293.5 122.3,289.1 C134.8,290.2 147.3,290.5 159.8,289.9 L162.8,289.8 C164.9,296 170.5,300.4 177,301 L177,301 C186.3,302 194.6,295.3 195.6,286.1 C196.5,277.5 190.8,269.6 182.4,267.8 C173.3,265.8 164.3,271.6 162.3,280.6 C162.3,280.7 162.3,280.8 162.2,281 C145.8,281.8 120.7,282 106.2,277.1 C94.5,268.1 83.2,258.8 72.7,249.9 C86.8,252 101.1,252.4 115.3,251 C118.1,258.4 124.6,263.7 132.4,265 C144.6,267.1 156.1,258.9 158.2,246.7 C160.3,234.5 152.1,223 139.9,220.9 C128.1,218.9 116.8,226.5 114.3,238.2 C114,239.5 113.8,240.9 113.8,242.3 C95.5,244 77.1,242.6 59.3,238.3 C53.9,233.6 48.3,228.3 42.7,223 C30.5,211.4 18.7,199.5 11.4,192.1 L9.8,190.5 C7.5,188.2 4,187.7 1.1,189.2 L1,189.3 L1,189.1 L1,201.9 L1.1,202 L1.2,202.1 L4.2,204.7 Z" id="Path" fill="#04216E" fill-rule="nonzero"></path>
            <path d="M482.9,753.7 L478.2,748.7" id="Path"></path>
            <path d="M811.3,465.6 C799.6,428.8 772.2,403.1 734.9,394 L681.1,380.9 C675.6,379.6 670,382.9 668.7,388.4 C668.2,390.3 668.3,392.3 669,394.2 L686.8,446.7 C699.2,483.1 727.2,508.1 764.9,516.4 L765.7,516.6 L803.1,525.9 L815.4,529 L824.4,531.2 L816.2,523.5 L809.6,517.3 C801.3,509.5 793.2,501.8 785.4,494.4 C737.6,448.9 701,413.5 701,413.5 C701,413.5 741.1,448.3 792.4,492.4 C799.5,498.5 806.8,504.8 814.3,511.2 L816,512.7 L829.9,524.6 L822.5,501.1 L811.3,465.6 Z" id="Path" fill="#2C52CF" fill-rule="nonzero"></path>
            <path d="M986.1,508.2 C989.8,504.2 993.3,500 996.5,495.6 C1009,478.3 1016.3,457.8 1017.4,436.5 C1018,424.6 1016.8,412.8 1013.9,401.3 L1012.4,395.4 C999.3,393.9 990,382 991.5,368.9 C992.3,362.3 995.7,356.4 1001.1,352.5 L1001.5,352.2 L999.2,343 C997.7,337 991.7,333.4 985.7,334.9 C983.6,335.4 981.8,336.5 980.3,338 L938.9,381.6 C910.2,411.9 900.4,451.4 911.4,491.8 L929.1,557.4 L929.4,557.4 C930.4,552.7 931.6,547.6 933,542.2 L971.8,404.4 L972.8,404.6 L941,545.1 C941,545.1 939.9,549.4 938.7,556 C938.7,556.2 938.6,556.3 938.6,556.5 L983.7,510.9 C984.5,509.9 985.3,509 986.1,508.2 Z" id="Path" fill="#2C52CF" fill-rule="nonzero"></path>
            <path d="M583.3,449.3 C583.2,449.8 583.1,450.2 583,450.7 L583,450.7 C583.1,450.2 583.2,449.7 583.3,449.3 Z" id="Path" fill="#78A1F4" fill-rule="nonzero"></path>
            <path d="M582.8,451.2 C582.9,451.2 582.9,451.2 582.8,451.2 C582.8,451 582.9,450.8 582.9,450.6 L582.9,450.6 L556.3,457.4 C555.7,457.6 555.3,458.2 555.5,458.8 C555.6,459.3 556,459.6 556.5,459.7 L583.8,462.9 C582.9,460.5 582.5,458 582.4,455.4 C582.4,454.1 582.5,452.6 582.8,451.2 Z" id="Path" fill="#04216E" fill-rule="nonzero"></path>
            <path d="M726.5,582.9 L726.5,582.9 C720.8,585.1 708.2,586.9 708.2,586.9 L708,586.9 L740.6,644.2 L746.8,655 C750.2,661 757.3,663.9 764,662 L764,662 C771.9,659.6 776.5,651.3 774.1,643.4 C773.5,641.5 772.6,639.8 771.4,638.3 L751.6,613.9 L726.5,582.9 L726.5,582.9 Z" id="Path" fill="#04216E" fill-rule="nonzero"></path>
            <path d="M648.7,558.8 C638.1,547.3 630.1,533.6 627.5,520.4 C627.1,518.4 626.8,516.3 626.7,514.3 C626.5,510.5 626.6,506.6 627,502.8 C627.3,500.2 627.8,497.6 628.4,495.1 C629,492.7 629.7,490.4 630.5,488.1 L616.5,475.8 L606.5,481.5 L604.3,482.7 L592.8,489.2 C592.8,489.2 583.3,527.8 607.9,553.1 C609.3,556.5 611.4,559.5 614.2,561.9 C606.7,576.5 588.4,605.8 577.6,621.2 L577.2,621.8 C577.2,621.4 577.3,621 577.3,620.6 C578.3,607.6 578.4,594.5 577.6,581.5 C581.7,580.1 585.1,577.2 587.4,573.5 C592.7,564.7 589.9,553.2 581,547.8 C572.2,542.5 560.7,545.3 555.3,554.2 C550.5,562.2 552.3,572.6 559.6,578.4 C562.2,580.5 565.3,581.9 568.7,582.3 C569.1,589.2 569.3,597.5 569.2,605.9 C569,617.7 567.9,629.7 565.1,638.2 C556,650.2 546.6,661.9 537.6,672.6 C539.7,658.2 539.9,643.6 538.4,629.1 C550.3,624.5 556.2,611.1 551.5,599.3 C546.8,587.5 533.5,581.5 521.7,586.2 C509.8,590.8 503.9,604.2 508.6,616 C512,624.7 520.2,630.5 529.5,630.7 C531.4,649.3 530.2,668.2 525.9,686.4 C521.8,691.1 517.4,696 512.9,700.9 C493.4,722 472.4,742.3 472.4,742.3 L478.3,748.5 L483.1,753.5 C483.2,753.4 500.2,733.4 507.6,725.5 C507.6,725.5 509.8,724.2 513.6,722.3 C522.6,717.7 540.6,709.6 560.8,706.3 C562,711 564.7,715.2 568.5,718.3 C569.9,719.4 571.4,720.4 573,721.2 C578.7,723.9 585.8,724.5 593.6,721.4 C595.1,720.8 596.5,719.9 597.6,718.8 C613.2,703.4 604.6,681.8 587.7,678.2 C575.3,675.6 563.2,683.5 560.6,695.8 C560.6,695.8 560.6,695.8 560.6,695.8 C560.5,696.3 560.4,696.8 560.4,697.2 C547.8,699.2 535.5,702.8 523.8,707.9 C532.1,698.6 541.7,687.7 551.5,675.8 C560.1,665.4 568,655.5 575.2,646 C579.7,644.5 584.2,642.9 588.7,641.5 C596.1,639.1 603.2,637 608.9,635.6 C614,644.6 625.5,647.7 634.5,642.6 C643.5,637.5 646.6,626 641.5,617 C636.4,608 624.9,604.9 615.9,610 C609.8,613.5 606.2,620 606.5,627 C602.6,628 597.9,629.3 592.2,631.1 C589.6,631.9 587.1,632.7 584.6,633.5 C598.3,614.5 617.9,582.9 625.8,567.4 C627.7,567.8 629.6,567.9 631.4,567.8 C640.9,571.4 652.7,573.8 667.1,574.3 C660.2,569.9 654.1,564.7 648.7,558.8 Z" id="Path" fill="#04216E" fill-rule="nonzero"></path>
            <path d="M726.5,582.9 L726.5,582.9 L697.8,540.8 L656.1,479.8 L647.7,462.7 L647.6,462.8 L639.3,445.8 C634.6,434 622.7,426.6 610,427.7 C603.9,428.3 598,430.6 593.2,434.4 C588.3,438.1 584.8,443.3 583.2,449.2 C584.7,443.5 588.3,438.6 593.3,435.4 C604.1,428.4 618.6,431.6 625.5,442.4 C632.4,453.2 629.3,467.7 618.5,474.6 C618.3,474.7 618.2,474.8 618,474.9 L618,474.9 L616.4,475.8 L630.4,488.1 C629.6,490.4 628.9,492.7 628.3,495.1 C627.7,497.6 627.2,500.2 626.9,502.8 C626.4,506.6 626.3,510.5 626.6,514.3 C626.7,516.4 627,518.4 627.4,520.4 C630,533.6 637.9,547.3 648.6,558.8 C654,564.7 660.1,569.9 666.7,574.4 C678.3,582.2 690.9,587.2 702.6,587.3 C704.3,587.2 706.1,587.1 707.9,587 L708.1,587 C708.1,587 720.8,585.2 726.5,582.9 Z" id="Path" fill="#78A1F4" fill-rule="nonzero"></path>
            <path d="M583,450.6 C583,450.8 582.9,450.9 582.9,451.1 C582.9,451.1 582.9,451.1 582.9,451.2 C582.6,452.6 582.4,454 582.4,455.5 C582.5,458.1 582.9,460.6 583.8,463 C583.9,463.2 583.9,463.3 584,463.5 L584.9,465.4 L585.1,465.9 L590.7,477.3 C592.2,480.6 592.9,484.1 592.8,487.7 L592.8,489.4 L604.3,482.9 L606.5,481.7 L616.5,476 L618.1,475.1 L618.1,475.1 C629.1,468.3 632.4,454 625.7,443 C619,432 604.6,428.7 593.6,435.4 C588.5,438.5 584.8,443.5 583.3,449.3 L583.3,449.4 C583.2,449.7 583.1,450.2 583,450.6 Z M600.4,449.2 C603,449.3 605.1,451.6 604.9,454.2 C604.8,456.7 602.8,458.6 600.4,458.7 C599.5,458.7 598.6,458.4 597.9,458 C596.5,457.1 595.7,455.6 595.6,454 C595.6,453.1 595.8,452.3 596.3,451.6 C597.2,450.1 598.7,449.2 600.4,449.2 L600.4,449.2 Z" id="Shape" fill="#FCE3D9" fill-rule="nonzero"></path>
            <path d="M597.9,458 C598.7,458.5 599.5,458.7 600.4,458.7 C603,458.7 605.2,456.6 605.2,454 C605.2,451.4 603.1,449.2 600.5,449.2 C598.8,449.2 597.2,450.1 596.4,451.5 C596,452.2 595.7,453.1 595.7,453.9 C595.6,455.6 596.5,457.1 597.9,458 Z" id="Path" fill="#04216E" fill-rule="nonzero"></path>
            <path d="M1328.2,607.1 C1331.3,607.1 1334.4,606.3 1337.2,604.8 C1345.2,614.3 1355.5,627.5 1362.3,639.5 C1372.2,639.1 1381.3,638.9 1389.5,638.9 C1393.7,633 1397.7,627.6 1401.2,623.3 C1410.7,627.4 1421.8,623 1425.9,613.5 C1430,604 1425.6,592.9 1416.1,588.8 C1406.6,584.7 1395.5,589.1 1391.4,598.6 C1388.6,605 1389.7,612.4 1394.1,617.9 C1391.6,621 1388.6,624.9 1385.1,629.8 C1383.5,632 1382,634.2 1380.5,636.3 C1380,612.9 1376.6,575.8 1373.6,558.7 C1385.4,552.9 1390.3,538.6 1384.6,526.8 C1378.8,515 1364.5,510.1 1352.7,515.8 C1340.9,521.5 1336,535.9 1341.7,547.7 C1345.4,555.3 1352.9,560.3 1361.3,561 C1364.2,577.4 1367.3,612.5 1367.8,631.1 C1360.6,619.4 1351.3,607.5 1343.9,598.7 C1349.6,590.1 1347.2,578.5 1338.5,572.8 C1335.5,570.8 1331.9,569.7 1328.2,569.7 C1328,569.7 1327.7,569.7 1327.5,569.7 C1317.2,570.2 1309.2,578.9 1309.7,589.2 C1310.1,599.2 1318.3,607 1328.2,607.1 L1328.2,607.1 Z" id="Path" fill="#04216E" fill-rule="nonzero"></path>
            <path d="M1331.9,627.4 C1330.5,626.6 1329,626 1327.4,625.8 C1312.1,623.6 1301.6,632.8 1299.3,644 C1315,642.4 1329.7,641.3 1343.1,640.5 C1341,635 1337,630.4 1331.9,627.4 Z" id="Path" fill="#04216E" fill-rule="nonzero"></path>
            <path d="M289.9,788.9 C289.1,788.4 288.1,788.6 287.6,789.4 C287.2,790 287.3,790.7 287.7,791.3 L330.5,848.1 L368.2,898 C391.2,893.8 415.1,889.2 439.9,884.2 L376.8,844.2 L289.9,788.9 Z" id="Path" fill="#4269E1" fill-rule="nonzero"></path>
            <path d="M1078.2,358.7 C1067.9,357.9 1058.9,365.6 1058.1,375.9 C1057.3,386.2 1065,395.2 1075.3,396 C1078.9,396.3 1082.5,395.5 1085.6,393.8 C1094.5,388.9 1097.9,377.9 1093.4,368.8 C1091.9,365.8 1089.6,363.3 1086.7,361.5 C1087.3,359.9 1088,358.2 1088.7,356.5 C1092.9,345.9 1098.5,333.4 1104.7,323.3 C1101.4,323 1098.1,322.7 1094.9,322.4 C1089.5,332.1 1084.8,342.2 1080.7,352.5 C1079.8,354.7 1079,356.8 1078.2,358.7 Z" id="Path" fill="#04216E" fill-rule="nonzero"></path>
            <path d="M1112.7,342.6 C1106.3,353.6 1110,367.6 1120.9,374.1 C1131.8,380.6 1145.9,376.8 1152.4,365.9 C1158.8,354.9 1155.1,340.9 1144.2,334.4 C1143.6,334 1143,333.7 1142.4,333.4 C1143,331.6 1143.7,329.6 1144.5,327.6 C1141.4,327.2 1138.4,326.8 1135.3,326.5 C1134.7,328.1 1134.2,329.7 1133.7,331.2 C1125,330.8 1117,335.2 1112.7,342.6 Z" id="Path" fill="#04216E" fill-rule="nonzero"></path>
            <path d="M1001.5,352.1 L1001.1,352.4 C990.5,360.2 988.2,375.1 996,385.7 C1003.8,396.3 1018.7,398.6 1029.3,390.8 C1038.4,384.1 1041.6,372 1036.9,361.7 C1049.7,351.4 1078.5,332 1094.6,322.4 C1087.6,321.8 1080.5,321.3 1073.5,320.8 C1056.5,331.7 1038.4,344.4 1028.8,352.1 C1020.6,346.3 1009.7,346.3 1001.5,352.1 Z" id="Path" fill="#04216E" fill-rule="nonzero"></path>
            <path d="M794.4,300.7 C800.6,318.8 810.3,345.2 819.8,362.8 C820.5,364.2 822.2,364.7 823.6,364 C824.6,363.5 825.1,362.5 825.1,361.4 L821.4,291.5 C819.3,291 817.2,290.4 815.1,289.8 C809.5,288.3 803.9,286.7 798.4,285 C795.1,284 791.7,282.9 788.4,281.9 C788.9,283.4 789.6,285.9 790.7,289.1 C791.8,292.3 792.8,296.2 794.4,300.7 Z" id="Path" fill="#4269E1" fill-rule="nonzero"></path>
            <path d="M881.6,689.3 L838,744.3 L823.2,763.1 L820.7,720.2 L817.9,672 L814.3,610.4 C814.2,609.3 813.3,608.5 812.2,608.5 C811.6,608.5 811,608.9 810.7,609.4 C801.1,623.7 784.5,672.5 782.9,723 C782.1,747.1 784.7,771.6 793.2,792.9 C797.6,791.5 801.9,790 806.3,788.6 C823.8,782.8 841.3,776.8 858.7,770.6 C860.9,769.8 863.1,769 865.3,768.2 L885,691.2 C885.5,690.3 885.1,689.2 884.2,688.7 C883.1,688.3 882.1,688.5 881.6,689.3 Z" id="Path" fill="#4269E1" fill-rule="nonzero"></path>
            <path d="M562.8,263.8 C562.7,263.4 562.6,263.1 562.6,262.7 C562.6,263.1 562.7,263.4 562.8,263.8 L562.8,263.8 Z" id="Path" fill="#78A1F4" fill-rule="nonzero"></path>
            <path d="M562.8,264.2 C562.8,264.2 562.8,264.2 562.8,264.2 C563.1,265.4 563.2,266.5 563.2,267.7 C563.2,269.7 562.8,271.7 562.1,273.7 L583.8,271.1 C584.3,271 584.7,270.6 584.6,270 C584.6,269.6 584.3,269.3 583.9,269.2 L562.7,263.8 L562.7,263.8 L562.8,264.2 Z" id="Path" fill="#04216E" fill-rule="nonzero"></path>
            <path d="M448.5,369.1 L412.8,413.1 C408.7,418.2 409.5,425.7 414.6,429.8 C419.7,433.9 427.2,433.1 431.3,428 C431.7,427.5 432.1,427 432.4,426.4 L463.3,372.2 L463.2,372.2 C463.1,372.3 453,370.9 448.5,369.1 Z" id="Path" fill="#0A206D" fill-rule="nonzero"></path>
            <path d="M536.3,284 L525.3,294.7 C525.8,296.2 526.2,297.7 526.6,299.2 C527.8,304.2 528.3,309.3 528,314.5 C527.2,326.8 519.9,340 509.7,350.8 C506.4,354.3 502.7,357.5 498.8,360.4 C497.9,361.1 496.9,361.8 496,362.4 C498.9,362.3 501.6,362.1 504.2,361.8 C514.8,360.7 523.4,358.1 530.2,354.6 C565.2,336.7 554.9,294.5 554.9,294.5 L545.7,289.3 L536.3,284 Z" id="Path" fill="#0A206D" fill-rule="nonzero"></path>
            <path d="M448.5,369.1 C453,370.9 463.1,372.3 463.1,372.3 L463.2,372.3 C464.7,372.4 466.1,372.5 467.4,372.6 C476.7,372.5 486.8,368.6 496,362.4 C496.9,361.8 497.9,361.1 498.8,360.4 C502.7,357.5 506.3,354.3 509.7,350.8 C519.9,340.1 527.2,326.8 528,314.5 C528.3,309.4 527.9,304.2 526.7,299.2 C526.3,297.7 525.9,296.2 525.4,294.7 L536.4,284 L534.9,283.1 L534.9,283.1 C526.2,277.7 523.5,266.3 528.9,257.6 C534.3,248.9 545.7,246.2 554.4,251.6 C558,253.8 560.8,257.2 562.2,261.3 C559.3,252.8 550.8,246.5 541.3,245.7 C531.2,244.8 521.7,250.7 518,260.2 L511.4,273.7 L511.4,273.7 L504.7,287.3 L470.4,337 L463.5,347 L448.5,369.1 Z" id="Path" fill="#78A1F4" fill-rule="nonzero"></path>
            <path d="M545.8,248.8 C535.6,248.1 526.7,255.8 526,266.1 C525.5,273 528.9,279.5 534.8,283.1 L534.8,283.1 L536.3,284 L545.8,289.4 L555,294.6 L555,293.2 C554.9,290.3 555.5,287.5 556.7,284.9 L561.2,275.9 L561.4,275.5 L562.1,274 C562.2,273.9 562.2,273.8 562.3,273.6 C563,271.7 563.4,269.7 563.4,267.6 C563.4,266.5 563.3,265.3 563,264.2 C563,264.2 563,264.2 563,264.1 L562.9,263.7 C562.8,263.3 562.8,263 562.7,262.6 L562.7,262.5 C562.6,262 562.4,261.5 562.3,261.1 C559.7,254.2 553.2,249.3 545.8,248.8 Z M550.6,263.1 C552.7,263.1 554.5,264.6 554.8,266.6 C554.9,266.9 554.9,267.1 554.9,267.4 C554.9,269.8 553,271.7 550.6,271.7 C548.2,271.7 546.3,269.8 546.2,267.4 C546.3,265.1 548.2,263.2 550.6,263.1 C550.6,263.2 550.6,263.2 550.6,263.1 L550.6,263.1 Z" id="Shape" fill="#FCE3D9" fill-rule="nonzero"></path>
            <path d="M550.6,271.8 C553,271.8 554.9,269.9 554.9,267.5 C554.9,267.5 554.9,267.5 554.9,267.5 C554.9,267.2 554.9,267 554.8,266.7 C554.4,264.3 552.1,262.8 549.7,263.2 C547.3,263.6 545.8,265.9 546.2,268.3 C546.7,270.3 548.5,271.8 550.6,271.8 Z" id="Path" fill="#04216E" fill-rule="nonzero"></path>
            <path d="M1048.5,729 L1104.2,770 L1109,724 C1101.9,711.2 1098.6,696.6 1099.7,681.9 C1100.2,674.1 1101.8,666.4 1104.5,659 C1106.4,653.8 1111.2,644.4 1116,635.5 L1077.9,688.2 L1048.5,729 Z" id="Path" fill="#04216E" fill-rule="nonzero"></path>
            <path d="M1122.5,602.8 C1133.9,590.3 1149.9,582.9 1166.9,582.4 L1189.9,510.7 C1185.1,507 1182.2,501.2 1182.9,495.4 C1183.9,486.4 1193,480 1203.2,481.2 C1203.4,481.2 1203.7,481.2 1204.1,481.3 C1220.7,482.3 1249.6,468.6 1249.6,468.6 L1300.6,440.9 L1300.5,440.3 C1300.5,440.1 1300.5,440.2 1300.5,440.2 C1298.7,425.1 1292.5,410.9 1282.6,399.4 C1268.3,382.8 1246.4,372.1 1219.6,369.1 L1216.9,368.8 C1216,368.7 1215.1,368.7 1214.3,368.6 L1212.7,368.5 C1190.9,367.8 1169.5,374.6 1152.2,387.9 L1148.6,390.6 C1140.6,396.6 1133.6,403.8 1127.9,412.1 C1125.5,415.6 1123.3,419.2 1121.5,423 C1117.1,432.1 1114.1,441.8 1112.7,451.8 C1112.6,452.7 1112.4,453.7 1112.3,454.6 C1111.8,459.4 1111.6,464.3 1111.8,469.1 C1063.2,469.1 1022.4,505.7 1017.1,554 C1010.7,554.3 1004.3,555 998,556.3 C987,558.5 976.4,562.3 966.4,567.5 C958.1,571.8 950.3,577.2 943.2,583.4 C940.3,585.9 937.6,588.6 935,591.3 C934.9,584.5 935.3,577.8 936.2,571.1 C936.8,565.7 937.7,560.7 938.4,556.6 C938.4,556.4 938.5,556.3 938.5,556.1 C939.7,549.5 940.8,545.2 940.8,545.2 L972.7,404.7 L971.7,404.5 L932.9,542.3 C931.6,547.8 930.4,552.8 929.3,557.5 C929.3,557.7 929.2,557.8 929.2,558 C928.2,562.7 927.3,567.2 926.5,571.5 C924.6,582.4 923.8,593.4 924.1,604.5 L910.1,592.7 C897.3,582 884,570.7 870.6,559.3 C862.4,552.3 854,545.2 845.8,538.2 L830,524.4 L816,512.5 L814.3,511 C806.8,504.6 799.5,498.3 792.4,492.2 C741.1,448.1 701,413.3 701,413.3 C701,413.3 737.5,448.8 785.3,494.2 C793.1,501.6 801.2,509.3 809.5,517.1 L816.1,523.3 L824.3,531 C831.8,538 839.4,545.1 847,552.3 C864.5,568.7 882.1,585 898.9,600.3 C899.9,601.2 900.9,602.1 901.8,603 C906.8,607.6 911.8,612.1 916.6,616.5 C903.5,640.9 899.4,669.1 904.9,696.2 C906.9,705.8 910,715.2 914.2,724.1 C914.5,724.7 914.8,725.3 915,725.8 C918.3,732.4 922.2,738.7 926.7,744.6 C940.2,762.3 958.3,775.8 979,783.8 L1047,697.9 L1122.5,602.8 Z" id="Path" fill="#04216E" fill-rule="nonzero"></path>
            <path d="M1300.5,440.1 C1300.5,440.1 1300.5,440.1 1300.5,440.1 C1300.6,440.4 1300.6,440.2 1300.5,440.1 Z" id="Path" fill="#04216E" fill-rule="nonzero"></path>
            <path d="M1439.2,640.9 C1439,640.8 1438.8,640.6 1438.7,640.5 L1438.7,640.4 L1450.7,613.9 L1447.5,613.5 C1439.5,612.4 1435.2,617.5 1432.1,625 L1425.6,639.6 L1419.1,654.4 L1391.7,685.3 L1391.7,685.3 L1401.1,756 L1457.7,669.9 L1488.4,581 C1490.6,573.1 1490.6,567 1485.5,563.6 L1454.2,634.3 C1451,641.4 1445.8,645 1439.2,640.9 Z" id="Path" fill="#9A5754" fill-rule="nonzero"></path>
            <path d="M1501.8,507.4 C1501,507 1499.4,506.5 1499.4,506.4 L1474.6,561.1 L1450.7,613.8 L1438.7,640.3 L1438.7,640.4 C1438.9,640.6 1439,640.7 1439.2,640.8 C1445.8,644.9 1451,641.3 1454.1,634.2 L1485.4,563.5 L1503.3,523 C1506,516.8 1508,510.4 1501.8,507.4 Z" id="Path" fill="#FCF6E1" fill-rule="nonzero"></path>
            <path d="M1240.7,625.9 C1238.9,620.2 1238.4,614.2 1239.3,608.3 L1249.7,574.1 C1294,570.2 1298.1,527 1298.1,527 C1298.1,527 1299.2,527 1300.7,526.9 C1304.2,526.7 1306.9,523.7 1306.7,520.2 C1306.7,519.3 1306.4,518.5 1306.1,517.7 L1300.2,510.7 C1300.2,510.7 1301.7,451.5 1300.8,443.4 L1300.6,440.6 L1249.6,468.3 C1249.6,468.3 1220.7,482 1204.1,481 C1203.7,481 1203.3,481 1203.2,480.9 C1193,479.7 1183.9,486.1 1182.9,495.1 C1182.2,500.9 1185.1,506.7 1189.9,510.4 L1166.9,582.1 C1170.8,582 1174.7,582.2 1178.6,582.8 C1188.7,584.4 1198.3,588.4 1206.5,594.5 L1206.7,594.7 C1215.4,602.6 1222.6,611.9 1228.1,622.3 L1246.6,650.3 L1250.2,655.8 L1248.4,650.1 L1240.7,625.9 Z M1277.3,484.4 C1280.6,484.4 1283.3,487.1 1283.3,490.4 C1283.3,493.7 1280.6,496.4 1277.3,496.4 C1274,496.4 1271.3,493.7 1271.3,490.4 C1271.3,487.1 1274,484.4 1277.3,484.4 Z" id="Shape" fill="#9A5754" fill-rule="nonzero"></path>
            <path d="M1233.6,878.1 L1233.3,914.9 L1289.1,914.9 L1286.9,898.5 L1285.1,898.3 C1266.6,895.9 1248.9,888.9 1233.6,878.1 Z" id="Path" fill="#6D87E7" fill-rule="nonzero"></path>
            <path d="M1116.8,779.2 L1198.7,839.5 C1184.9,817.3 1174.5,792.6 1156.8,773.5 C1155.8,772.5 1154.8,771.4 1153.8,770.4 C1143.3,760 1132,750.5 1121.5,740.2 C1116.6,735.4 1112.4,729.9 1109.1,724 L1104.3,770 L1116.8,779.2 Z" id="Path" fill="#6D87E7" fill-rule="nonzero"></path>
            <path d="M1277.3,496.3 C1280.6,496.3 1283.3,493.6 1283.3,490.3 C1283.3,487 1280.6,484.3 1277.3,484.3 C1274,484.3 1271.3,487 1271.3,490.3 C1271.3,493.6 1274,496.3 1277.3,496.3 Z" id="Path" fill="#04216E" fill-rule="nonzero"></path>
            <path d="M1214.5,861.1 C1208.6,854.4 1203.3,847.2 1198.7,839.5 L1116.8,779.2 L1104.2,770 L1048.5,729 L1077.9,688.2 L1116,635.5 C1122.3,623.9 1128.6,613 1128.8,613.2 C1148.3,587.4 1184.9,582.3 1210.7,601.7 C1216.3,605.9 1221.1,611.1 1224.9,617 C1220.6,608.3 1214.4,600.8 1206.7,595 L1206.5,594.8 C1198.3,588.7 1188.7,584.7 1178.6,583.1 C1174.7,582.5 1170.8,582.3 1166.9,582.4 C1150,583 1134,590.3 1122.5,602.8 L1047.3,697.9 L979.3,783.8 L916.3,863.5 C906.8,878.9 902.6,897 904.1,915 L1233.3,915 L1233.6,878.2 C1226.6,873.2 1220.2,867.5 1214.5,861.1 Z" id="Path" fill="#FE704E" fill-rule="nonzero"></path>
            <path d="M1312.6,750.6 L1250,656 L1246.4,650.5 L1227.9,622.5 C1227,620.6 1225.9,618.8 1224.8,617 C1207.5,589.7 1171.4,581.7 1144.1,599 C1138.2,602.8 1133,607.6 1128.7,613.2 C1128.5,613.1 1122.2,623.9 1115.9,635.5 C1111.1,644.4 1106.3,653.8 1104.4,659 C1101.7,666.4 1100.1,674.1 1099.6,681.9 C1098.6,696.5 1101.8,711.1 1108.9,724 C1112.2,730 1116.4,735.5 1121.3,740.3 C1131.9,750.6 1143.1,760.1 1153.6,770.5 C1154.6,771.5 1155.6,772.5 1156.6,773.6 C1174.3,792.6 1184.7,817.4 1198.5,839.6 C1203.1,847.2 1208.4,854.5 1214.3,861.2 C1220,867.6 1226.4,873.3 1233.4,878.2 C1248.7,889 1266.3,895.9 1284.9,898.4 L1286.7,898.6 C1315.3,901.7 1347.2,891.8 1361.3,866.8 C1372.2,847.5 1375,823.5 1375.4,800 L1375.4,698.3 L1312.6,750.6 Z" id="Path" fill="#78A1F4" fill-rule="nonzero"></path>
            <path d="M1391.6,685.3 L1375.6,698.3 L1375.6,800 L1376,799.6 L1397.3,781.2 C1401.2,777.8 1403.2,772.7 1402.5,767.6 L1401,756 L1391.6,685.3 L1391.6,685.3 Z" id="Path" fill="#EF6949" fill-rule="nonzero"></path>
        </g>
    </g>
</svg>